<?xml version="1.0"?>
<Project_Data Version="8.00">
<Project_Settings>
<ProfileName>MP4 only (up to 720p)</ProfileName>
<ProjectWidth>1280</ProjectWidth>
<ProjectHeight>720</ProjectHeight>
<IsCustomProject>1</IsCustomProject>
<SavedProjectSettings>1</SavedProjectSettings>
<LastFlashTemplate>-1</LastFlashTemplate>
</Project_Settings>


<AutoSaveFile>C:\Users\mark\AppData\Local\TechSmith\Camtasia Studio\8.0\Auto-Saves\Untitleddf93f9.autosave.camproj</AutoSaveFile>

<ProjectID>AA43B8AC-EF30-4E61-87A1-636209B52E97</ProjectID>

<PowerPointProject>0</PowerPointProject>

<PowerPointFilename></PowerPointFilename>


<Project_Notes>
</Project_Notes>

<Project_MetaData>
<Project_MetaData_Object>
<FieldArrayKey>8</FieldArrayKey>
<Value>Untitled</Value>
</Project_MetaData_Object>
<Project_MetaData_Object>
<FieldArrayKey>13</FieldArrayKey>
<Value>2014-09-20 06:42:01 PM</Value>
</Project_MetaData_Object>
<Project_MetaData_Object>
<FieldArrayKey>16</FieldArrayKey>
<Value>ENU</Value>
</Project_MetaData_Object>
</Project_MetaData>

<CSMLData>
<GoProject id="1" version="3.0" >
 <Project id="2" editRate="30/1" version="3.0" >
  <Author></Author>
  <Comment></Comment>
  <System></System>
  <SourceBin id="3"  >
    <Source id="4" src="C:\Users\mark\Documents\CEN5011-Video\capture-1.trec" lastMod="20140921T020351" rect="(0,0,1920,1080)" >
      <SourceTrack range="(0,1039)" type="0" editRate="30/1" trackRect="(0,0,1920,1080)" sampleRate="0/1" bitDepth="0" numChannels="0" filename="capture-1.trec!Strack0.tsc2" metaData="capture-1.trec;" />
      <SourceTrack range="(0,1522688)" type="2" editRate="44100/1" trackRect="(0,0,0,0)" sampleRate="44100/1" bitDepth="16" numChannels="2" filename="capture-1.trec!Maudio1.mp4" metaData="" />
      <SourceTrack range="(0,1501184)" type="2" editRate="44100/1" trackRect="(0,0,0,0)" sampleRate="44100/1" bitDepth="16" numChannels="2" filename="capture-1.trec!$audio2.mp4" metaData="" />
    </Source>
    <Source id="5" src="C:\Users\mark\Documents\CEN5011-Video\working with.wav" lastMod="20140921T021256" rect="(0,0,0,0)" >
      <SourceTrack range="(0,40000000)" type="2" editRate="10000000/1" trackRect="(0,0,0,0)" sampleRate="48000/1" bitDepth="0" numChannels="2" filename="" metaData="" />
    </Source>
    <Source id="6" src="C:\Users\mark\Documents\CEN5011-Video\jumpin.wav" lastMod="20140921T021607" rect="(0,0,0,0)" >
      <SourceTrack range="(0,30000000)" type="2" editRate="10000000/1" trackRect="(0,0,0,0)" sampleRate="48000/1" bitDepth="0" numChannels="2" filename="" metaData="" />
    </Source>
    <Source id="7" src="C:\Users\mark\Documents\CEN5011-Video\jumpin2.wav" lastMod="20140921T021723" rect="(0,0,0,0)" >
      <SourceTrack range="(0,34666667)" type="2" editRate="10000000/1" trackRect="(0,0,0,0)" sampleRate="48000/1" bitDepth="0" numChannels="2" filename="" metaData="" />
    </Source>
    <Source id="8" src="C:\Users\mark\Documents\CEN5011-Video\jumprightin.wav" lastMod="20140921T021838" rect="(0,0,0,0)" >
      <SourceTrack range="(0,40000000)" type="2" editRate="10000000/1" trackRect="(0,0,0,0)" sampleRate="44100/1" bitDepth="16" numChannels="2" filename="" metaData="" />
    </Source>
    <Source id="9" src="C:\Users\mark\Documents\CEN5011-Video\scene2-people.trec" lastMod="20140921T025559" rect="(0,0,1920,1080)" >
      <SourceTrack range="(0,811)" type="0" editRate="30/1" trackRect="(0,0,1920,1080)" sampleRate="0/1" bitDepth="0" numChannels="0" filename="scene2-people.trec!Strack0.tsc2" metaData="scene2-people.trec;" />
      <SourceTrack range="(0,1191936)" type="2" editRate="44100/1" trackRect="(0,0,0,0)" sampleRate="44100/1" bitDepth="16" numChannels="2" filename="scene2-people.trec!Maudio1.mp4" metaData="" />
      <SourceTrack range="(0,1191936)" type="2" editRate="44100/1" trackRect="(0,0,0,0)" sampleRate="44100/1" bitDepth="16" numChannels="2" filename="scene2-people.trec!$audio2.mp4" metaData="" />
    </Source>
    <Source id="10" src="C:\Users\mark\Documents\CEN5011-Video\scene3-blankkanban.trec" lastMod="20140921T033508" rect="(0,0,1920,1080)" >
      <SourceTrack range="(0,1519)" type="0" editRate="30/1" trackRect="(0,0,1920,1080)" sampleRate="0/1" bitDepth="0" numChannels="0" filename="scene3-blankkanban.trec!Strack0.tsc2" metaData="scene3-blankkanban.trec;" />
      <SourceTrack range="(0,2228224)" type="2" editRate="44100/1" trackRect="(0,0,0,0)" sampleRate="44100/1" bitDepth="16" numChannels="2" filename="scene3-blankkanban.trec!Maudio1.mp4" metaData="" />
      <SourceTrack range="(0,2206720)" type="2" editRate="44100/1" trackRect="(0,0,0,0)" sampleRate="44100/1" bitDepth="16" numChannels="2" filename="scene3-blankkanban.trec!$audio2.mp4" metaData="" />
    </Source>
    <Source id="11" src="C:\Users\mark\Documents\CEN5011-Video\scene3-story creation.trec" lastMod="20140921T164801" rect="(0,0,1920,1080)" >
      <SourceTrack range="(0,1585)" type="0" editRate="30/1" trackRect="(0,0,1920,1080)" sampleRate="0/1" bitDepth="0" numChannels="0" filename="scene3-story creation.trec!Strack0.tsc2" metaData="scene3-story creation.trec;" />
      <SourceTrack range="(0,2316288)" type="2" editRate="44100/1" trackRect="(0,0,0,0)" sampleRate="44100/1" bitDepth="16" numChannels="2" filename="scene3-story creation.trec!Maudio1.mp4" metaData="" />
    </Source>
    <Source id="12" src="C:\Users\mark\Documents\CEN5011-Video\backlog.wav" lastMod="20140921T165719" rect="(0,0,0,0)" >
      <SourceTrack range="(0,65000000)" type="2" editRate="10000000/1" trackRect="(0,0,0,0)" sampleRate="44100/1" bitDepth="16" numChannels="2" filename="" metaData="" />
    </Source>
    <Source id="13" src="C:\Users\mark\Documents\CEN5011-Video\addtobacklog.wav" lastMod="20140921T170004" rect="(0,0,0,0)" >
      <SourceTrack range="(0,70000000)" type="2" editRate="10000000/1" trackRect="(0,0,0,0)" sampleRate="44100/1" bitDepth="16" numChannels="2" filename="" metaData="" />
    </Source>
    <Source id="14" src="C:\Users\mark\Documents\CEN5011-Video\scene4beta-working story.trec" lastMod="20140921T214620" rect="(0,0,1920,1080)" >
      <SourceTrack range="(0,2349)" type="0" editRate="30/1" trackRect="(0,0,1920,1080)" sampleRate="0/1" bitDepth="0" numChannels="0" filename="scene4beta-working story.trec!Strack0.tsc2" metaData="scene4beta-working story.trec;" />
      <SourceTrack range="(0,3441664)" type="2" editRate="44100/1" trackRect="(0,0,0,0)" sampleRate="44100/1" bitDepth="16" numChannels="2" filename="scene4beta-working story.trec!Maudio1.mp4" metaData="" />
    </Source>
    <Source id="15" src="C:\Users\mark\Documents\CEN5011-Video\scene4beta2-intotesting.trec" lastMod="20140928T020219" rect="(0,0,1920,1080)" >
      <SourceTrack range="(0,1941)" type="0" editRate="30/1" trackRect="(0,0,1920,1080)" sampleRate="0/1" bitDepth="0" numChannels="0" filename="scene4beta2-intotesting.trec!Strack0.tsc2" metaData="scene4beta2-intotesting.trec;" />
      <SourceTrack range="(0,2845696)" type="2" editRate="44100/1" trackRect="(0,0,0,0)" sampleRate="44100/1" bitDepth="16" numChannels="2" filename="scene4beta2-intotesting.trec!Maudio1.mp4" metaData="" />
    </Source>
    <Source id="16" src="C:\Users\mark\Documents\CEN5011-Video\github.wav" lastMod="20140928T022435" rect="(0,0,0,0)" >
      <SourceTrack range="(0,70000000)" type="2" editRate="10000000/1" trackRect="(0,0,0,0)" sampleRate="44100/1" bitDepth="16" numChannels="2" filename="" metaData="" />
    </Source>
    <Source id="17" src="C:\Users\mark\Documents\CEN5011-Video\capture-2.trec" lastMod="20140928T030938" rect="(0,0,1920,1080)" >
      <SourceTrack range="(0,7324)" type="0" editRate="30/1" trackRect="(0,0,1920,1080)" sampleRate="0/1" bitDepth="0" numChannels="0" filename="capture-2.trec!Strack0.tsc2" metaData="capture-2.trec;" />
      <SourceTrack range="(0,10762240)" type="2" editRate="44100/1" trackRect="(0,0,0,0)" sampleRate="44100/1" bitDepth="16" numChannels="2" filename="capture-2.trec!Maudio1.mp4" metaData="" />
    </Source>
  </SourceBin>
  <Timeline id="18"  >
   <Attributes>
    <Attribute id="19" value="1280" name="width"/>
    <Attribute id="20" value="720" name="height"/>
    <Attribute id="21" value="(0,0,0,255)" name="backgroundColor"/>
   </Attributes>
    <GenericMixer id="22"  name="Unified Mixer">
     <MetaData>
      <entry key="MixerType" val="TimelineMixer"/>
     </MetaData>
     <Tracks>
      <GenericTrack id="23"  >
       <Attributes>
        <Attribute id="24" value="" name="ident"/>
        <Attribute id="25" value="0" name="audioMuted"/>
        <Attribute id="26" value="0" name="videoHidden"/>
       </Attributes>
       <MetaData>
        <entry key="IsLocked" val="False"/>
        <entry key="WinTrackHeight" val="62"/>
       </MetaData>
       <Medias>
        <AMFile id="27" start="887" duration="120" scalar="1/1" mediaStart="0/1" mediaDuration="120/1" trackNumber="0" src="8" channelNumber="0,1" >
         <Parameters>
          <InterpolatingParam id="28" interp="linr"  time="0/1" value="1" leadInLength="0/1"  name="volume"/>
          <Parameter id="29"  name="captions"/>
         </Parameters>
         <Attributes>
          <Attribute id="30" value="" name="ident"/>
          <Attribute id="31" value="44100" name="sampleRate"/>
          <Attribute id="32" value="16" name="bitDepth"/>
          <Attribute id="33" value="1" name="gain"/>
          <Attribute id="34" value="0" name="mixToMono"/>
         </Attributes>
         <MetaData>
          <entry key="WinSubProjectDisplayName" val=""/>
         </MetaData>
        </AMFile>
        <UnifiedMedia id="35"  >
         <AMFile id="36" start="6677" duration="574" scalar="1/1" mediaStart="0/1" mediaDuration="574/1" trackNumber="1" src="17" channelNumber="0,1" >
          <Parameters>
           <InterpolatingParam id="37" interp="linr"  time="0/1" value="1" leadInLength="0/1"  name="volume"/>
           <Parameter id="38"  name="captions"/>
          </Parameters>
          <Attributes>
           <Attribute id="39" value="" name="ident"/>
           <Attribute id="40" value="44100" name="sampleRate"/>
           <Attribute id="41" value="16" name="bitDepth"/>
           <Attribute id="42" value="1" name="gain"/>
           <Attribute id="43" value="0" name="mixToMono"/>
          </Attributes>
         </AMFile>
         <ScreenVMFile id="44" start="6677" duration="574" scalar="1/1" mediaStart="0/1" mediaDuration="574/1" trackNumber="0" src="17" >
          <Transformer>
           <VectorParam id="45"  name="translation">
            <InterpolatingParam id="46" interp="linr"  time="-9999999/1" value="0" leadInLength="0/1"  />
            <InterpolatingParam id="47" interp="linr"  time="-9999999/1" value="0" leadInLength="0/1"  />
            <InterpolatingParam id="48" interp="linr"  time="-9999999/1" value="0" leadInLength="0/1"  />
           </VectorParam>
           <VectorParam id="49"  name="rotation">
            <InterpolatingParam id="50" interp="linr"  time="-9999999/1" value="0" leadInLength="0/1"  />
            <InterpolatingParam id="51" interp="linr"  time="-9999999/1" value="0" leadInLength="0/1"  />
            <InterpolatingParam id="52" interp="linr"  time="-9999999/1" value="0" leadInLength="0/1"  />
           </VectorParam>
           <VectorParam id="53"  name="shear">
            <InterpolatingParam id="54" interp="linr"  time="-9999999/1" value="0" leadInLength="0/1"  />
            <InterpolatingParam id="55" interp="linr"  time="-9999999/1" value="0" leadInLength="0/1"  />
            <InterpolatingParam id="56" interp="linr"  time="-9999999/1" value="0" leadInLength="0/1"  />
           </VectorParam>
           <VectorParam id="57"  name="scale">
            <InterpolatingParam id="58" interp="linr"  time="-9999999/1" value="0.66666666666666663" leadInLength="0/1"  />
            <InterpolatingParam id="59" interp="linr"  time="-9999999/1" value="0.66666666666666663" leadInLength="0/1"  />
            <InterpolatingParam id="60" interp="linr"  time="-9999999/1" value="1" leadInLength="0/1"  />
           </VectorParam>
           <VectorParam id="61"  name="anchor">
            <InterpolatingParam id="62" interp="linr"  time="0/1" value="0" leadInLength="0/1"  />
            <InterpolatingParam id="63" interp="linr"  time="0/1" value="0" leadInLength="0/1"  />
            <InterpolatingParam id="64" interp="linr"  time="0/1" value="0" leadInLength="0/1"  />
           </VectorParam>
          </Transformer>
          <Parameters>
           <VectorParam id="65"  name="sourceCrop">
            <InterpolatingParam id="66" interp="linr"  time="0/1" value="0" leadInLength="0/1"  />
            <InterpolatingParam id="67" interp="linr"  time="0/1" value="0" leadInLength="0/1"  />
            <InterpolatingParam id="68" interp="linr"  time="0/1" value="0" leadInLength="0/1"  />
            <InterpolatingParam id="69" interp="linr"  time="0/1" value="0" leadInLength="0/1"  />
           </VectorParam>
           <VectorParam id="70"  name="geometryCrop">
            <InterpolatingParam id="71" interp="linr"  time="-9999999/1" value="0" leadInLength="0/1"  />
            <InterpolatingParam id="72" interp="linr"  time="-9999999/1" value="0" leadInLength="0/1"  />
            <InterpolatingParam id="73" interp="linr"  time="-9999999/1" value="0" leadInLength="0/1"  />
            <InterpolatingParam id="74" interp="linr"  time="-9999999/1" value="0" leadInLength="0/1"  />
           </VectorParam>
           <InterpolatingParam id="75" interp="linr"  time="-9999999/1" value="1" leadInLength="0/1"  name="opacity"/>
           <InterpolatingParam id="76" interp="linr"  time="0/1" value="1" leadInLength="0/1"  name="cursorOpacity"/>
           <InterpolatingParam id="77" interp="linr"  time="0/1" value="1" leadInLength="0/1"  name="cursorScale"/>
          </Parameters>
          <Effects>
           <GenericEffect id="78" name = "CursorBaseEffectName" >
            <Parameters>
            <InterpolatingParam id="79" interp="linr"  time="-9999999/1" value="1" leadInLength="0/1"   name="cursorSize"/>
            <InterpolatingParam id="80" interp="linr"  time="-9999999/1" value="0" leadInLength="0/1"   name="highlightBlurRadius"/>
            <InterpolatingParam id="81" interp="linr"  time="-9999999/1" value="0" leadInLength="0/1"   name="highlightColorBlue"/>
            <InterpolatingParam id="82" interp="linr"  time="-9999999/1" value="255" leadInLength="0/1"   name="highlightColorGreen"/>
            <InterpolatingParam id="83" interp="linr"  time="-9999999/1" value="255" leadInLength="0/1"   name="highlightColorRed"/>
            <InterpolatingParam id="84" interp="linr"  time="-9999999/1" value="5" leadInLength="0/1"   name="highlightFeatherSize"/>
            <InterpolatingParam id="85" interp="linr"  time="-9999999/1" value="2" leadInLength="0/1"   name="highlightMagnification"/>
            <InterpolatingParam id="86" interp="linr"  time="-9999999/1" value="1" leadInLength="0/1"   name="highlightOpacity"/>
            <InterpolatingParam id="87" interp="linr"  time="-9999999/1" value="45" leadInLength="0/1"   name="highlightSize"/>
            <Parameter id="88"   name="highlightType">
             <Keyframes>
             <Keyframe id="89"  time="-9999999/1" value="0" leadInLength="0/1"  />
             </Keyframes>
            </Parameter>
            <InterpolatingParam id="90" interp="linr"  time="-9999999/1" value="0" leadInLength="0/1"   name="leftClickColorBlue"/>
            <InterpolatingParam id="91" interp="linr"  time="-9999999/1" value="0" leadInLength="0/1"   name="leftClickColorGreen"/>
            <InterpolatingParam id="92" interp="linr"  time="-9999999/1" value="255" leadInLength="0/1"   name="leftClickColorRed"/>
            <InterpolatingParam id="93" interp="linr"  time="-9999999/1" value="0.80000000000000004" leadInLength="0/1"   name="leftClickDuration"/>
            <InterpolatingParam id="94" interp="linr"  time="-9999999/1" value="20" leadInLength="0/1"   name="leftClickSize"/>
            <Parameter id="95"   name="leftClickSoundFilename">
             <Keyframes>
             <Keyframe id="96"  time="-9999999/1" value="" leadInLength="0/1"  />
             </Keyframes>
            </Parameter>
            <InterpolatingParam id="97" interp="linr"  time="-9999999/1" value="1" leadInLength="0/1"   name="leftClickSoundVolume"/>
            <Parameter id="98"   name="leftClickType">
             <Keyframes>
             <Keyframe id="99"  time="-9999999/1" value="0" leadInLength="0/1"  />
             </Keyframes>
            </Parameter>
            <InterpolatingParam id="100" interp="linr"  time="-9999999/1" value="1" leadInLength="0/1"   name="opacity"/>
            <InterpolatingParam id="101" interp="linr"  time="-9999999/1" value="255" leadInLength="0/1"   name="rightClickColorBlue"/>
            <InterpolatingParam id="102" interp="linr"  time="-9999999/1" value="0" leadInLength="0/1"   name="rightClickColorGreen"/>
            <InterpolatingParam id="103" interp="linr"  time="-9999999/1" value="0" leadInLength="0/1"   name="rightClickColorRed"/>
            <InterpolatingParam id="104" interp="linr"  time="-9999999/1" value="0.80000000000000004" leadInLength="0/1"   name="rightClickDuration"/>
            <InterpolatingParam id="105" interp="linr"  time="-9999999/1" value="20" leadInLength="0/1"   name="rightClickSize"/>
            <Parameter id="106"   name="rightClickSoundFilename">
             <Keyframes>
             <Keyframe id="107"  time="-9999999/1" value="" leadInLength="0/1"  />
             </Keyframes>
            </Parameter>
            <InterpolatingParam id="108" interp="linr"  time="-9999999/1" value="1" leadInLength="0/1"   name="rightClickSoundVolume"/>
            <Parameter id="109"   name="rightClickType">
             <Keyframes>
             <Keyframe id="110"  time="-9999999/1" value="0" leadInLength="0/1"  />
             </Keyframes>
            </Parameter>
            </Parameters>
            <MetaData>
             <entry key="effectIndex" val="0"/>
            </MetaData>
           </GenericEffect>
          </Effects>
          <Attributes>
           <Attribute id="111" value="" name="ident"/>
          </Attributes>
          <ExtraData>
           <Entry key="ZoomPanBin">
            <ZoomPanBin id="112"  >
             <ZoomPanKeyframes>
              <ZoomPanKeyframe id="113" timeRangeEnd="-9999999/1" timeRangeDuration="0/1" interpolaterName="linr"  />
             </ZoomPanKeyframes>
            </ZoomPanBin>
           </Entry>
           <Entry key="CursorEffectBin">
            <CursorEffectBin id="114"  >
             <CursorEffectKeyframes>
              <CursorEffectKeyframe id="115" timeRangeEnd="-9999999/1" timeRangeDuration="0/1" interpolaterName=""  />
             </CursorEffectKeyframes>
            </CursorEffectBin>
           </Entry>
          </ExtraData>
         </ScreenVMFile>
         <MetaData>
          <entry key="AutoAppliedSmartFocus" val="False"/>
          <entry key="WinSubProjectDisplayName" val=""/>
         </MetaData>
        </UnifiedMedia>
        <UnifiedMedia id="116"  >
         <AMFile id="117" start="7251" duration="5930" scalar="1/1" mediaStart="1391/1" mediaDuration="5930/1" trackNumber="1" src="17" channelNumber="0,1" >
          <Parameters>
           <InterpolatingParam id="118" interp="linr"  time="0/1" value="1" leadInLength="0/1"  name="volume"/>
           <Parameter id="119"  name="captions"/>
          </Parameters>
          <Attributes>
           <Attribute id="120" value="" name="ident"/>
           <Attribute id="121" value="44100" name="sampleRate"/>
           <Attribute id="122" value="16" name="bitDepth"/>
           <Attribute id="123" value="1" name="gain"/>
           <Attribute id="124" value="0" name="mixToMono"/>
          </Attributes>
         </AMFile>
         <ScreenVMFile id="125" start="7251" duration="5930" scalar="1/1" mediaStart="1391/1" mediaDuration="5930/1" trackNumber="0" src="17" >
          <Transformer>
           <VectorParam id="126"  name="translation">
            <InterpolatingParam id="127" interp="linr"  time="-9999999/1" value="0" leadInLength="0/1"  />
            <InterpolatingParam id="128" interp="linr"  time="-9999999/1" value="0" leadInLength="0/1"  />
            <InterpolatingParam id="129" interp="linr"  time="-9999999/1" value="0" leadInLength="0/1"  />
           </VectorParam>
           <VectorParam id="130"  name="rotation">
            <InterpolatingParam id="131" interp="linr"  time="-9999999/1" value="0" leadInLength="0/1"  />
            <InterpolatingParam id="132" interp="linr"  time="-9999999/1" value="0" leadInLength="0/1"  />
            <InterpolatingParam id="133" interp="linr"  time="-9999999/1" value="0" leadInLength="0/1"  />
           </VectorParam>
           <VectorParam id="134"  name="shear">
            <InterpolatingParam id="135" interp="linr"  time="-9999999/1" value="0" leadInLength="0/1"  />
            <InterpolatingParam id="136" interp="linr"  time="-9999999/1" value="0" leadInLength="0/1"  />
            <InterpolatingParam id="137" interp="linr"  time="-9999999/1" value="0" leadInLength="0/1"  />
           </VectorParam>
           <VectorParam id="138"  name="scale">
            <InterpolatingParam id="139" interp="linr"  time="-9999999/1" value="0.66666666666666663" leadInLength="0/1"  />
            <InterpolatingParam id="140" interp="linr"  time="-9999999/1" value="0.66666666666666663" leadInLength="0/1"  />
            <InterpolatingParam id="141" interp="linr"  time="-9999999/1" value="1" leadInLength="0/1"  />
           </VectorParam>
           <VectorParam id="142"  name="anchor">
            <InterpolatingParam id="143" interp="linr"  time="0/1" value="0" leadInLength="0/1"  />
            <InterpolatingParam id="144" interp="linr"  time="0/1" value="0" leadInLength="0/1"  />
            <InterpolatingParam id="145" interp="linr"  time="0/1" value="0" leadInLength="0/1"  />
           </VectorParam>
          </Transformer>
          <Parameters>
           <VectorParam id="146"  name="sourceCrop">
            <InterpolatingParam id="147" interp="linr"  time="0/1" value="0" leadInLength="0/1"  />
            <InterpolatingParam id="148" interp="linr"  time="0/1" value="0" leadInLength="0/1"  />
            <InterpolatingParam id="149" interp="linr"  time="0/1" value="0" leadInLength="0/1"  />
            <InterpolatingParam id="150" interp="linr"  time="0/1" value="0" leadInLength="0/1"  />
           </VectorParam>
           <VectorParam id="151"  name="geometryCrop">
            <InterpolatingParam id="152" interp="linr"  time="-9999999/1" value="0" leadInLength="0/1"  />
            <InterpolatingParam id="153" interp="linr"  time="-9999999/1" value="0" leadInLength="0/1"  />
            <InterpolatingParam id="154" interp="linr"  time="-9999999/1" value="0" leadInLength="0/1"  />
            <InterpolatingParam id="155" interp="linr"  time="-9999999/1" value="0" leadInLength="0/1"  />
           </VectorParam>
           <InterpolatingParam id="156" interp="linr"  time="-9999999/1" value="1" leadInLength="0/1"  name="opacity"/>
           <InterpolatingParam id="157" interp="linr"  time="0/1" value="1" leadInLength="0/1"  name="cursorOpacity"/>
           <InterpolatingParam id="158" interp="linr"  time="0/1" value="1" leadInLength="0/1"  name="cursorScale"/>
          </Parameters>
          <Effects>
           <GenericEffect id="159" name = "CursorBaseEffectName" >
            <Parameters>
            <InterpolatingParam id="160" interp="linr"  time="-9999999/1" value="1" leadInLength="0/1"   name="cursorSize"/>
            <InterpolatingParam id="161" interp="linr"  time="-9999999/1" value="0" leadInLength="0/1"   name="highlightBlurRadius"/>
            <InterpolatingParam id="162" interp="linr"  time="-9999999/1" value="0" leadInLength="0/1"   name="highlightColorBlue"/>
            <InterpolatingParam id="163" interp="linr"  time="-9999999/1" value="255" leadInLength="0/1"   name="highlightColorGreen"/>
            <InterpolatingParam id="164" interp="linr"  time="-9999999/1" value="255" leadInLength="0/1"   name="highlightColorRed"/>
            <InterpolatingParam id="165" interp="linr"  time="-9999999/1" value="5" leadInLength="0/1"   name="highlightFeatherSize"/>
            <InterpolatingParam id="166" interp="linr"  time="-9999999/1" value="2" leadInLength="0/1"   name="highlightMagnification"/>
            <InterpolatingParam id="167" interp="linr"  time="-9999999/1" value="1" leadInLength="0/1"   name="highlightOpacity"/>
            <InterpolatingParam id="168" interp="linr"  time="-9999999/1" value="45" leadInLength="0/1"   name="highlightSize"/>
            <Parameter id="169"   name="highlightType">
             <Keyframes>
             <Keyframe id="170"  time="-9999999/1" value="0" leadInLength="0/1"  />
             </Keyframes>
            </Parameter>
            <InterpolatingParam id="171" interp="linr"  time="-9999999/1" value="0" leadInLength="0/1"   name="leftClickColorBlue"/>
            <InterpolatingParam id="172" interp="linr"  time="-9999999/1" value="0" leadInLength="0/1"   name="leftClickColorGreen"/>
            <InterpolatingParam id="173" interp="linr"  time="-9999999/1" value="255" leadInLength="0/1"   name="leftClickColorRed"/>
            <InterpolatingParam id="174" interp="linr"  time="-9999999/1" value="0.80000000000000004" leadInLength="0/1"   name="leftClickDuration"/>
            <InterpolatingParam id="175" interp="linr"  time="-9999999/1" value="20" leadInLength="0/1"   name="leftClickSize"/>
            <Parameter id="176"   name="leftClickSoundFilename">
             <Keyframes>
             <Keyframe id="177"  time="-9999999/1" value="" leadInLength="0/1"  />
             </Keyframes>
            </Parameter>
            <InterpolatingParam id="178" interp="linr"  time="-9999999/1" value="1" leadInLength="0/1"   name="leftClickSoundVolume"/>
            <Parameter id="179"   name="leftClickType">
             <Keyframes>
             <Keyframe id="180"  time="-9999999/1" value="0" leadInLength="0/1"  />
             </Keyframes>
            </Parameter>
            <InterpolatingParam id="181" interp="linr"  time="-9999999/1" value="1" leadInLength="0/1"   name="opacity"/>
            <InterpolatingParam id="182" interp="linr"  time="-9999999/1" value="255" leadInLength="0/1"   name="rightClickColorBlue"/>
            <InterpolatingParam id="183" interp="linr"  time="-9999999/1" value="0" leadInLength="0/1"   name="rightClickColorGreen"/>
            <InterpolatingParam id="184" interp="linr"  time="-9999999/1" value="0" leadInLength="0/1"   name="rightClickColorRed"/>
            <InterpolatingParam id="185" interp="linr"  time="-9999999/1" value="0.80000000000000004" leadInLength="0/1"   name="rightClickDuration"/>
            <InterpolatingParam id="186" interp="linr"  time="-9999999/1" value="20" leadInLength="0/1"   name="rightClickSize"/>
            <Parameter id="187"   name="rightClickSoundFilename">
             <Keyframes>
             <Keyframe id="188"  time="-9999999/1" value="" leadInLength="0/1"  />
             </Keyframes>
            </Parameter>
            <InterpolatingParam id="189" interp="linr"  time="-9999999/1" value="1" leadInLength="0/1"   name="rightClickSoundVolume"/>
            <Parameter id="190"   name="rightClickType">
             <Keyframes>
             <Keyframe id="191"  time="-9999999/1" value="0" leadInLength="0/1"  />
             </Keyframes>
            </Parameter>
            </Parameters>
            <MetaData>
             <entry key="effectIndex" val="0"/>
            </MetaData>
           </GenericEffect>
          </Effects>
          <Attributes>
           <Attribute id="192" value="" name="ident"/>
          </Attributes>
          <ExtraData>
           <Entry key="ZoomPanBin">
            <ZoomPanBin id="193"  >
             <ZoomPanKeyframes>
              <ZoomPanKeyframe id="194" timeRangeEnd="-9999999/1" timeRangeDuration="0/1" interpolaterName="linr"  />
             </ZoomPanKeyframes>
            </ZoomPanBin>
           </Entry>
           <Entry key="CursorEffectBin">
            <CursorEffectBin id="195"  >
             <CursorEffectKeyframes>
              <CursorEffectKeyframe id="196" timeRangeEnd="-9999999/1" timeRangeDuration="0/1" interpolaterName=""  />
             </CursorEffectKeyframes>
            </CursorEffectBin>
           </Entry>
          </ExtraData>
         </ScreenVMFile>
         <MetaData>
          <entry key="AutoAppliedSmartFocus" val="False"/>
          <entry key="WinSubProjectDisplayName" val=""/>
         </MetaData>
        </UnifiedMedia>
       </Medias>
      </GenericTrack>
      <GenericTrack id="197"  >
       <Attributes>
        <Attribute id="198" value="" name="ident"/>
        <Attribute id="199" value="0" name="audioMuted"/>
        <Attribute id="200" value="0" name="videoHidden"/>
       </Attributes>
       <MetaData>
        <entry key="IsLocked" val="False"/>
        <entry key="WinTrackHeight" val="62"/>
       </MetaData>
       <Medias>
        <StitchedMedia id="201" start="1040" duration="606" scalar="1/1" mediaStart="39/1" mediaDuration="606/1" minMediaStart="0/1" >
         <Transformer>
          <VectorParam id="202"  name="translation">
           <InterpolatingParam id="203" interp="linr"  time="-9999999/1" value="0" leadInLength="0/1"  />
           <InterpolatingParam id="204" interp="linr"  time="-9999999/1" value="0" leadInLength="0/1"  />
           <InterpolatingParam id="205" interp="linr"  time="-9999999/1" value="0" leadInLength="0/1"  />
          </VectorParam>
          <VectorParam id="206"  name="rotation">
           <InterpolatingParam id="207" interp="linr"  time="-9999999/1" value="0" leadInLength="0/1"  />
           <InterpolatingParam id="208" interp="linr"  time="-9999999/1" value="0" leadInLength="0/1"  />
           <InterpolatingParam id="209" interp="linr"  time="-9999999/1" value="0" leadInLength="0/1"  />
          </VectorParam>
          <VectorParam id="210"  name="shear">
           <InterpolatingParam id="211" interp="linr"  time="-9999999/1" value="0" leadInLength="0/1"  />
           <InterpolatingParam id="212" interp="linr"  time="-9999999/1" value="0" leadInLength="0/1"  />
           <InterpolatingParam id="213" interp="linr"  time="-9999999/1" value="0" leadInLength="0/1"  />
          </VectorParam>
          <VectorParam id="214"  name="scale">
           <InterpolatingParam id="215" interp="linr"  time="-9999999/1" value="0.66666666666666663" leadInLength="0/1"  />
           <InterpolatingParam id="216" interp="linr"  time="-9999999/1" value="0.66666666666666663" leadInLength="0/1"  />
           <InterpolatingParam id="217" interp="linr"  time="-9999999/1" value="1" leadInLength="0/1"  />
          </VectorParam>
          <VectorParam id="218"  name="anchor">
           <InterpolatingParam id="219" interp="linr"  time="0/1" value="0" leadInLength="0/1"  />
           <InterpolatingParam id="220" interp="linr"  time="0/1" value="0" leadInLength="0/1"  />
           <InterpolatingParam id="221" interp="linr"  time="0/1" value="0" leadInLength="0/1"  />
          </VectorParam>
         </Transformer>
         <Parameters>
          <VectorParam id="222"  name="sourceCrop">
           <InterpolatingParam id="223" interp="linr"  time="0/1" value="0" leadInLength="0/1"  />
           <InterpolatingParam id="224" interp="linr"  time="0/1" value="0" leadInLength="0/1"  />
           <InterpolatingParam id="225" interp="linr"  time="0/1" value="0" leadInLength="0/1"  />
           <InterpolatingParam id="226" interp="linr"  time="0/1" value="0" leadInLength="0/1"  />
          </VectorParam>
          <VectorParam id="227"  name="geometryCrop">
           <InterpolatingParam id="228" interp="linr"  time="-9999999/1" value="0" leadInLength="0/1"  />
           <InterpolatingParam id="229" interp="linr"  time="-9999999/1" value="0" leadInLength="0/1"  />
           <InterpolatingParam id="230" interp="linr"  time="-9999999/1" value="0" leadInLength="0/1"  />
           <InterpolatingParam id="231" interp="linr"  time="-9999999/1" value="0" leadInLength="0/1"  />
          </VectorParam>
          <InterpolatingParam id="232" interp="linr"  time="-9999999/1" value="1" leadInLength="0/1"  name="opacity"/>
          <InterpolatingParam id="233" interp="linr"  time="0/1" value="1" leadInLength="0/1"  name="cursorOpacity"/>
          <InterpolatingParam id="234" interp="linr"  time="0/1" value="1" leadInLength="0/1"  name="cursorScale"/>
          <InterpolatingParam id="235" interp="linr"  name="volume">
           <Keyframes>
           <Keyframe id="236"  time="0/1" value="1" leadInLength="0/1"  />
           <Keyframe id="237"  time="390/1" value="1" leadInLength="0/1"  />
           <Keyframe id="238"  time="405/1" value="0" leadInLength="0/1"  />
           <Keyframe id="239"  time="406/1" value="1" leadInLength="0/1"  />
           </Keyframes>
          </InterpolatingParam>
          <Parameter id="240"  name="captions"/>
         </Parameters>
         <Effects>
          <GenericEffect id="241" name = "CursorBaseEffectName" >
           <Parameters>
           <InterpolatingParam id="242" interp="linr"  time="-9999999/1" value="1" leadInLength="0/1"   name="cursorSize"/>
           <InterpolatingParam id="243" interp="linr"  time="-9999999/1" value="0" leadInLength="0/1"   name="highlightBlurRadius"/>
           <InterpolatingParam id="244" interp="linr"  time="-9999999/1" value="0" leadInLength="0/1"   name="highlightColorBlue"/>
           <InterpolatingParam id="245" interp="linr"  time="-9999999/1" value="255" leadInLength="0/1"   name="highlightColorGreen"/>
           <InterpolatingParam id="246" interp="linr"  time="-9999999/1" value="255" leadInLength="0/1"   name="highlightColorRed"/>
           <InterpolatingParam id="247" interp="linr"  time="-9999999/1" value="5" leadInLength="0/1"   name="highlightFeatherSize"/>
           <InterpolatingParam id="248" interp="linr"  time="-9999999/1" value="2" leadInLength="0/1"   name="highlightMagnification"/>
           <InterpolatingParam id="249" interp="linr"  time="-9999999/1" value="1" leadInLength="0/1"   name="highlightOpacity"/>
           <InterpolatingParam id="250" interp="linr"  time="-9999999/1" value="45" leadInLength="0/1"   name="highlightSize"/>
           <Parameter id="251"   name="highlightType">
            <Keyframes>
            <Keyframe id="252"  time="-9999999/1" value="0" leadInLength="0/1"  />
            </Keyframes>
           </Parameter>
           <InterpolatingParam id="253" interp="linr"  time="-9999999/1" value="0" leadInLength="0/1"   name="leftClickColorBlue"/>
           <InterpolatingParam id="254" interp="linr"  time="-9999999/1" value="0" leadInLength="0/1"   name="leftClickColorGreen"/>
           <InterpolatingParam id="255" interp="linr"  time="-9999999/1" value="255" leadInLength="0/1"   name="leftClickColorRed"/>
           <InterpolatingParam id="256" interp="linr"  time="-9999999/1" value="0.80000000000000004" leadInLength="0/1"   name="leftClickDuration"/>
           <InterpolatingParam id="257" interp="linr"  time="-9999999/1" value="20" leadInLength="0/1"   name="leftClickSize"/>
           <Parameter id="258"   name="leftClickSoundFilename">
            <Keyframes>
            <Keyframe id="259"  time="-9999999/1" value="" leadInLength="0/1"  />
            </Keyframes>
           </Parameter>
           <InterpolatingParam id="260" interp="linr"  time="-9999999/1" value="1" leadInLength="0/1"   name="leftClickSoundVolume"/>
           <Parameter id="261"   name="leftClickType">
            <Keyframes>
            <Keyframe id="262"  time="-9999999/1" value="0" leadInLength="0/1"  />
            </Keyframes>
           </Parameter>
           <InterpolatingParam id="263" interp="linr"  time="-9999999/1" value="1" leadInLength="0/1"   name="opacity"/>
           <InterpolatingParam id="264" interp="linr"  time="-9999999/1" value="255" leadInLength="0/1"   name="rightClickColorBlue"/>
           <InterpolatingParam id="265" interp="linr"  time="-9999999/1" value="0" leadInLength="0/1"   name="rightClickColorGreen"/>
           <InterpolatingParam id="266" interp="linr"  time="-9999999/1" value="0" leadInLength="0/1"   name="rightClickColorRed"/>
           <InterpolatingParam id="267" interp="linr"  time="-9999999/1" value="0.80000000000000004" leadInLength="0/1"   name="rightClickDuration"/>
           <InterpolatingParam id="268" interp="linr"  time="-9999999/1" value="20" leadInLength="0/1"   name="rightClickSize"/>
           <Parameter id="269"   name="rightClickSoundFilename">
            <Keyframes>
            <Keyframe id="270"  time="-9999999/1" value="" leadInLength="0/1"  />
            </Keyframes>
           </Parameter>
           <InterpolatingParam id="271" interp="linr"  time="-9999999/1" value="1" leadInLength="0/1"   name="rightClickSoundVolume"/>
           <Parameter id="272"   name="rightClickType">
            <Keyframes>
            <Keyframe id="273"  time="-9999999/1" value="0" leadInLength="0/1"  />
            </Keyframes>
           </Parameter>
           </Parameters>
           <MetaData>
            <entry key="effectIndex" val="0"/>
           </MetaData>
          </GenericEffect>
         </Effects>
         <Attributes>
          <Attribute id="274" value="" name="ident"/>
          <Attribute id="275" value="0" name="mixToMono"/>
         </Attributes>
         <MetaData>
          <entry key="AutoAppliedSmartFocus" val="False"/>
          <entry key="WinSubProjectDisplayName" val=""/>
         </MetaData>
         <ExtraData>
          <Entry key="ZoomPanBin">
           <ZoomPanBin id="276"  >
            <ZoomPanKeyframes>
             <ZoomPanKeyframe id="277" timeRangeEnd="-9999999/1" timeRangeDuration="0/1" interpolaterName="linr"  />
            </ZoomPanKeyframes>
           </ZoomPanBin>
          </Entry>
          <Entry key="CursorEffectBin">
           <CursorEffectBin id="278"  >
            <CursorEffectKeyframes>
             <CursorEffectKeyframe id="279" timeRangeEnd="-9999999/1" timeRangeDuration="0/1" interpolaterName=""  />
            </CursorEffectKeyframes>
           </CursorEffectBin>
          </Entry>
         </ExtraData>
         <GenericTrack id="280"  >
          <Attributes>
           <Attribute id="281" value="" name="ident"/>
           <Attribute id="282" value="0" name="audioMuted"/>
           <Attribute id="283" value="0" name="videoHidden"/>
          </Attributes>
          <MetaData>
           <entry key="IsLocked" val="False"/>
           <entry key="WinTrackHeight" val="0"/>
          </MetaData>
          <Medias>
           <UnifiedMedia id="284"  >
            <AMFile id="285" start="0" duration="405" scalar="1/1" mediaStart="0/1" mediaDuration="405/1" trackNumber="1" src="9" channelNumber="0,1" >
             <Parameters>
              <InterpolatingParam id="286" interp="linr"  time="0/1" value="1" leadInLength="0/1"  name="volume"/>
              <Parameter id="287"  name="captions"/>
             </Parameters>
             <Attributes>
              <Attribute id="288" value="" name="ident"/>
              <Attribute id="289" value="44100" name="sampleRate"/>
              <Attribute id="290" value="16" name="bitDepth"/>
              <Attribute id="291" value="1" name="gain"/>
              <Attribute id="292" value="0" name="mixToMono"/>
             </Attributes>
            </AMFile>
            <ScreenVMFile id="293" start="0" duration="405" scalar="1/1" mediaStart="0/1" mediaDuration="405/1" trackNumber="0" src="9" >
             <Transformer>
              <VectorParam id="294"  name="translation">
               <InterpolatingParam id="295" interp="linr"  time="-9999999/1" value="0" leadInLength="0/1"  />
               <InterpolatingParam id="296" interp="linr"  time="-9999999/1" value="0" leadInLength="0/1"  />
               <InterpolatingParam id="297" interp="linr"  time="-9999999/1" value="0" leadInLength="0/1"  />
              </VectorParam>
              <VectorParam id="298"  name="rotation">
               <InterpolatingParam id="299" interp="linr"  time="-9999999/1" value="0" leadInLength="0/1"  />
               <InterpolatingParam id="300" interp="linr"  time="-9999999/1" value="0" leadInLength="0/1"  />
               <InterpolatingParam id="301" interp="linr"  time="-9999999/1" value="0" leadInLength="0/1"  />
              </VectorParam>
              <VectorParam id="302"  name="shear">
               <InterpolatingParam id="303" interp="linr"  time="-9999999/1" value="0" leadInLength="0/1"  />
               <InterpolatingParam id="304" interp="linr"  time="-9999999/1" value="0" leadInLength="0/1"  />
               <InterpolatingParam id="305" interp="linr"  time="-9999999/1" value="0" leadInLength="0/1"  />
              </VectorParam>
              <VectorParam id="306"  name="scale">
               <InterpolatingParam id="307" interp="linr"  time="-9999999/1" value="1" leadInLength="0/1"  />
               <InterpolatingParam id="308" interp="linr"  time="-9999999/1" value="1" leadInLength="0/1"  />
               <InterpolatingParam id="309" interp="linr"  time="-9999999/1" value="1" leadInLength="0/1"  />
              </VectorParam>
              <VectorParam id="310"  name="anchor">
               <InterpolatingParam id="311" interp="linr"  time="0/1" value="0" leadInLength="0/1"  />
               <InterpolatingParam id="312" interp="linr"  time="0/1" value="0" leadInLength="0/1"  />
               <InterpolatingParam id="313" interp="linr"  time="0/1" value="0" leadInLength="0/1"  />
              </VectorParam>
             </Transformer>
             <Parameters>
              <VectorParam id="314"  name="sourceCrop">
               <InterpolatingParam id="315" interp="linr"  time="0/1" value="0" leadInLength="0/1"  />
               <InterpolatingParam id="316" interp="linr"  time="0/1" value="0" leadInLength="0/1"  />
               <InterpolatingParam id="317" interp="linr"  time="0/1" value="0" leadInLength="0/1"  />
               <InterpolatingParam id="318" interp="linr"  time="0/1" value="0" leadInLength="0/1"  />
              </VectorParam>
              <VectorParam id="319"  name="geometryCrop">
               <InterpolatingParam id="320" interp="linr"  time="-9999999/1" value="0" leadInLength="0/1"  />
               <InterpolatingParam id="321" interp="linr"  time="-9999999/1" value="0" leadInLength="0/1"  />
               <InterpolatingParam id="322" interp="linr"  time="-9999999/1" value="0" leadInLength="0/1"  />
               <InterpolatingParam id="323" interp="linr"  time="-9999999/1" value="0" leadInLength="0/1"  />
              </VectorParam>
              <InterpolatingParam id="324" interp="linr"  time="-9999999/1" value="1" leadInLength="0/1"  name="opacity"/>
              <InterpolatingParam id="325" interp="linr"  time="0/1" value="0" leadInLength="0/1"  name="cursorOpacity"/>
              <InterpolatingParam id="326" interp="linr"  time="0/1" value="0" leadInLength="0/1"  name="cursorScale"/>
             </Parameters>
             <Attributes>
              <Attribute id="327" value="" name="ident"/>
             </Attributes>
             <ExtraData>
              <Entry key="ZoomPanBin">
               <ZoomPanBin id="328"  >
                <ZoomPanKeyframes>
                 <ZoomPanKeyframe id="329" timeRangeEnd="-9999999/1" timeRangeDuration="0/1" interpolaterName="linr"  />
                </ZoomPanKeyframes>
               </ZoomPanBin>
              </Entry>
              <Entry key="CursorEffectBin">
               <CursorEffectBin id="330"  >
                <CursorEffectKeyframes>
                </CursorEffectKeyframes>
               </CursorEffectBin>
              </Entry>
             </ExtraData>
            </ScreenVMFile>
            <MetaData>
             <entry key="AutoAppliedSmartFocus" val="False"/>
             <entry key="WinSubProjectDisplayName" val=""/>
            </MetaData>
           </UnifiedMedia>
           <UnifiedMedia id="331"  >
            <AMFile id="332" start="405" duration="240" scalar="1/1" mediaStart="570/1" mediaDuration="240/1" trackNumber="1" src="9" channelNumber="0,1" >
             <Parameters>
              <InterpolatingParam id="333" interp="linr"  time="0/1" value="1" leadInLength="0/1"  name="volume"/>
              <Parameter id="334"  name="captions"/>
             </Parameters>
             <Attributes>
              <Attribute id="335" value="" name="ident"/>
              <Attribute id="336" value="44100" name="sampleRate"/>
              <Attribute id="337" value="16" name="bitDepth"/>
              <Attribute id="338" value="1" name="gain"/>
              <Attribute id="339" value="0" name="mixToMono"/>
             </Attributes>
            </AMFile>
            <ScreenVMFile id="340" start="405" duration="240" scalar="1/1" mediaStart="570/1" mediaDuration="240/1" trackNumber="0" src="9" >
             <Transformer>
              <VectorParam id="341"  name="translation">
               <InterpolatingParam id="342" interp="linr"  time="-9999999/1" value="0" leadInLength="0/1"  />
               <InterpolatingParam id="343" interp="linr"  time="-9999999/1" value="0" leadInLength="0/1"  />
               <InterpolatingParam id="344" interp="linr"  time="-9999999/1" value="0" leadInLength="0/1"  />
              </VectorParam>
              <VectorParam id="345"  name="rotation">
               <InterpolatingParam id="346" interp="linr"  time="-9999999/1" value="0" leadInLength="0/1"  />
               <InterpolatingParam id="347" interp="linr"  time="-9999999/1" value="0" leadInLength="0/1"  />
               <InterpolatingParam id="348" interp="linr"  time="-9999999/1" value="0" leadInLength="0/1"  />
              </VectorParam>
              <VectorParam id="349"  name="shear">
               <InterpolatingParam id="350" interp="linr"  time="-9999999/1" value="0" leadInLength="0/1"  />
               <InterpolatingParam id="351" interp="linr"  time="-9999999/1" value="0" leadInLength="0/1"  />
               <InterpolatingParam id="352" interp="linr"  time="-9999999/1" value="0" leadInLength="0/1"  />
              </VectorParam>
              <VectorParam id="353"  name="scale">
               <InterpolatingParam id="354" interp="linr"  time="-9999999/1" value="1" leadInLength="0/1"  />
               <InterpolatingParam id="355" interp="linr"  time="-9999999/1" value="1" leadInLength="0/1"  />
               <InterpolatingParam id="356" interp="linr"  time="-9999999/1" value="1" leadInLength="0/1"  />
              </VectorParam>
              <VectorParam id="357"  name="anchor">
               <InterpolatingParam id="358" interp="linr"  time="0/1" value="0" leadInLength="0/1"  />
               <InterpolatingParam id="359" interp="linr"  time="0/1" value="0" leadInLength="0/1"  />
               <InterpolatingParam id="360" interp="linr"  time="0/1" value="0" leadInLength="0/1"  />
              </VectorParam>
             </Transformer>
             <Parameters>
              <VectorParam id="361"  name="sourceCrop">
               <InterpolatingParam id="362" interp="linr"  time="0/1" value="0" leadInLength="0/1"  />
               <InterpolatingParam id="363" interp="linr"  time="0/1" value="0" leadInLength="0/1"  />
               <InterpolatingParam id="364" interp="linr"  time="0/1" value="0" leadInLength="0/1"  />
               <InterpolatingParam id="365" interp="linr"  time="0/1" value="0" leadInLength="0/1"  />
              </VectorParam>
              <VectorParam id="366"  name="geometryCrop">
               <InterpolatingParam id="367" interp="linr"  time="-9999999/1" value="0" leadInLength="0/1"  />
               <InterpolatingParam id="368" interp="linr"  time="-9999999/1" value="0" leadInLength="0/1"  />
               <InterpolatingParam id="369" interp="linr"  time="-9999999/1" value="0" leadInLength="0/1"  />
               <InterpolatingParam id="370" interp="linr"  time="-9999999/1" value="0" leadInLength="0/1"  />
              </VectorParam>
              <InterpolatingParam id="371" interp="linr"  time="-9999999/1" value="1" leadInLength="0/1"  name="opacity"/>
              <InterpolatingParam id="372" interp="linr"  time="0/1" value="0" leadInLength="0/1"  name="cursorOpacity"/>
              <InterpolatingParam id="373" interp="linr"  time="0/1" value="0" leadInLength="0/1"  name="cursorScale"/>
             </Parameters>
             <Attributes>
              <Attribute id="374" value="" name="ident"/>
             </Attributes>
             <ExtraData>
              <Entry key="ZoomPanBin">
               <ZoomPanBin id="375"  >
                <ZoomPanKeyframes>
                 <ZoomPanKeyframe id="376" timeRangeEnd="-9999999/1" timeRangeDuration="0/1" interpolaterName="linr"  />
                </ZoomPanKeyframes>
               </ZoomPanBin>
              </Entry>
              <Entry key="CursorEffectBin">
               <CursorEffectBin id="377"  >
                <CursorEffectKeyframes>
                </CursorEffectKeyframes>
               </CursorEffectBin>
              </Entry>
             </ExtraData>
            </ScreenVMFile>
            <MetaData>
             <entry key="AutoAppliedSmartFocus" val="False"/>
             <entry key="WinSubProjectDisplayName" val=""/>
            </MetaData>
           </UnifiedMedia>
          </Medias>
         </GenericTrack>
        </StitchedMedia>
       </Medias>
      </GenericTrack>
      <GenericTrack id="378"  >
       <Attributes>
        <Attribute id="379" value="" name="ident"/>
        <Attribute id="380" value="0" name="audioMuted"/>
        <Attribute id="381" value="0" name="videoHidden"/>
       </Attributes>
       <MetaData>
        <entry key="IsLocked" val="False"/>
        <entry key="WinTrackHeight" val="62"/>
       </MetaData>
       <Medias>
        <UnifiedMedia id="382"  >
         <AMFile id="383" start="1646" duration="1515" scalar="1/1" mediaStart="0/1" mediaDuration="1515/1" trackNumber="1" src="10" channelNumber="0,1" >
          <Parameters>
           <InterpolatingParam id="384" interp="linr"  time="0/1" value="1" leadInLength="0/1"  name="volume"/>
           <Parameter id="385"  name="captions"/>
          </Parameters>
          <Attributes>
           <Attribute id="386" value="" name="ident"/>
           <Attribute id="387" value="44100" name="sampleRate"/>
           <Attribute id="388" value="16" name="bitDepth"/>
           <Attribute id="389" value="1" name="gain"/>
           <Attribute id="390" value="0" name="mixToMono"/>
          </Attributes>
         </AMFile>
         <ScreenVMFile id="391" start="1646" duration="1515" scalar="1/1" mediaStart="0/1" mediaDuration="1515/1" trackNumber="0" src="10" >
          <Transformer>
           <VectorParam id="392"  name="translation">
            <InterpolatingParam id="393" interp="linr"  time="-9999999/1" value="0" leadInLength="0/1"  />
            <InterpolatingParam id="394" interp="linr"  time="-9999999/1" value="0" leadInLength="0/1"  />
            <InterpolatingParam id="395" interp="linr"  time="-9999999/1" value="0" leadInLength="0/1"  />
           </VectorParam>
           <VectorParam id="396"  name="rotation">
            <InterpolatingParam id="397" interp="linr"  time="-9999999/1" value="0" leadInLength="0/1"  />
            <InterpolatingParam id="398" interp="linr"  time="-9999999/1" value="0" leadInLength="0/1"  />
            <InterpolatingParam id="399" interp="linr"  time="-9999999/1" value="0" leadInLength="0/1"  />
           </VectorParam>
           <VectorParam id="400"  name="shear">
            <InterpolatingParam id="401" interp="linr"  time="-9999999/1" value="0" leadInLength="0/1"  />
            <InterpolatingParam id="402" interp="linr"  time="-9999999/1" value="0" leadInLength="0/1"  />
            <InterpolatingParam id="403" interp="linr"  time="-9999999/1" value="0" leadInLength="0/1"  />
           </VectorParam>
           <VectorParam id="404"  name="scale">
            <InterpolatingParam id="405" interp="linr"  time="-9999999/1" value="0.66666666666666663" leadInLength="0/1"  />
            <InterpolatingParam id="406" interp="linr"  time="-9999999/1" value="0.66666666666666663" leadInLength="0/1"  />
            <InterpolatingParam id="407" interp="linr"  time="-9999999/1" value="1" leadInLength="0/1"  />
           </VectorParam>
           <VectorParam id="408"  name="anchor">
            <InterpolatingParam id="409" interp="linr"  time="0/1" value="0" leadInLength="0/1"  />
            <InterpolatingParam id="410" interp="linr"  time="0/1" value="0" leadInLength="0/1"  />
            <InterpolatingParam id="411" interp="linr"  time="0/1" value="0" leadInLength="0/1"  />
           </VectorParam>
          </Transformer>
          <Parameters>
           <VectorParam id="412"  name="sourceCrop">
            <InterpolatingParam id="413" interp="linr"  time="0/1" value="0" leadInLength="0/1"  />
            <InterpolatingParam id="414" interp="linr"  time="0/1" value="0" leadInLength="0/1"  />
            <InterpolatingParam id="415" interp="linr"  time="0/1" value="0" leadInLength="0/1"  />
            <InterpolatingParam id="416" interp="linr"  time="0/1" value="0" leadInLength="0/1"  />
           </VectorParam>
           <VectorParam id="417"  name="geometryCrop">
            <InterpolatingParam id="418" interp="linr"  time="-9999999/1" value="0" leadInLength="0/1"  />
            <InterpolatingParam id="419" interp="linr"  time="-9999999/1" value="0" leadInLength="0/1"  />
            <InterpolatingParam id="420" interp="linr"  time="-9999999/1" value="0" leadInLength="0/1"  />
            <InterpolatingParam id="421" interp="linr"  time="-9999999/1" value="0" leadInLength="0/1"  />
           </VectorParam>
           <InterpolatingParam id="422" interp="linr"  time="-9999999/1" value="1" leadInLength="0/1"  name="opacity"/>
           <InterpolatingParam id="423" interp="linr"  time="0/1" value="1" leadInLength="0/1"  name="cursorOpacity"/>
           <InterpolatingParam id="424" interp="linr"  time="0/1" value="1" leadInLength="0/1"  name="cursorScale"/>
          </Parameters>
          <Effects>
           <GenericEffect id="425" name = "CursorBaseEffectName" >
            <Parameters>
            <InterpolatingParam id="426" interp="linr"  time="-9999999/1" value="1" leadInLength="0/1"   name="cursorSize"/>
            <InterpolatingParam id="427" interp="linr"  time="-9999999/1" value="0" leadInLength="0/1"   name="highlightBlurRadius"/>
            <InterpolatingParam id="428" interp="linr"  time="-9999999/1" value="0" leadInLength="0/1"   name="highlightColorBlue"/>
            <InterpolatingParam id="429" interp="linr"  time="-9999999/1" value="255" leadInLength="0/1"   name="highlightColorGreen"/>
            <InterpolatingParam id="430" interp="linr"  time="-9999999/1" value="255" leadInLength="0/1"   name="highlightColorRed"/>
            <InterpolatingParam id="431" interp="linr"  time="-9999999/1" value="5" leadInLength="0/1"   name="highlightFeatherSize"/>
            <InterpolatingParam id="432" interp="linr"  time="-9999999/1" value="2" leadInLength="0/1"   name="highlightMagnification"/>
            <InterpolatingParam id="433" interp="linr"  time="-9999999/1" value="1" leadInLength="0/1"   name="highlightOpacity"/>
            <InterpolatingParam id="434" interp="linr"  time="-9999999/1" value="45" leadInLength="0/1"   name="highlightSize"/>
            <Parameter id="435"   name="highlightType">
             <Keyframes>
             <Keyframe id="436"  time="-9999999/1" value="0" leadInLength="0/1"  />
             </Keyframes>
            </Parameter>
            <InterpolatingParam id="437" interp="linr"  time="-9999999/1" value="0" leadInLength="0/1"   name="leftClickColorBlue"/>
            <InterpolatingParam id="438" interp="linr"  time="-9999999/1" value="0" leadInLength="0/1"   name="leftClickColorGreen"/>
            <InterpolatingParam id="439" interp="linr"  time="-9999999/1" value="255" leadInLength="0/1"   name="leftClickColorRed"/>
            <InterpolatingParam id="440" interp="linr"  time="-9999999/1" value="0.80000000000000004" leadInLength="0/1"   name="leftClickDuration"/>
            <InterpolatingParam id="441" interp="linr"  time="-9999999/1" value="20" leadInLength="0/1"   name="leftClickSize"/>
            <Parameter id="442"   name="leftClickSoundFilename">
             <Keyframes>
             <Keyframe id="443"  time="-9999999/1" value="" leadInLength="0/1"  />
             </Keyframes>
            </Parameter>
            <InterpolatingParam id="444" interp="linr"  time="-9999999/1" value="1" leadInLength="0/1"   name="leftClickSoundVolume"/>
            <Parameter id="445"   name="leftClickType">
             <Keyframes>
             <Keyframe id="446"  time="-9999999/1" value="0" leadInLength="0/1"  />
             </Keyframes>
            </Parameter>
            <InterpolatingParam id="447" interp="linr"  time="-9999999/1" value="1" leadInLength="0/1"   name="opacity"/>
            <InterpolatingParam id="448" interp="linr"  time="-9999999/1" value="255" leadInLength="0/1"   name="rightClickColorBlue"/>
            <InterpolatingParam id="449" interp="linr"  time="-9999999/1" value="0" leadInLength="0/1"   name="rightClickColorGreen"/>
            <InterpolatingParam id="450" interp="linr"  time="-9999999/1" value="0" leadInLength="0/1"   name="rightClickColorRed"/>
            <InterpolatingParam id="451" interp="linr"  time="-9999999/1" value="0.80000000000000004" leadInLength="0/1"   name="rightClickDuration"/>
            <InterpolatingParam id="452" interp="linr"  time="-9999999/1" value="20" leadInLength="0/1"   name="rightClickSize"/>
            <Parameter id="453"   name="rightClickSoundFilename">
             <Keyframes>
             <Keyframe id="454"  time="-9999999/1" value="" leadInLength="0/1"  />
             </Keyframes>
            </Parameter>
            <InterpolatingParam id="455" interp="linr"  time="-9999999/1" value="1" leadInLength="0/1"   name="rightClickSoundVolume"/>
            <Parameter id="456"   name="rightClickType">
             <Keyframes>
             <Keyframe id="457"  time="-9999999/1" value="0" leadInLength="0/1"  />
             </Keyframes>
            </Parameter>
            </Parameters>
            <MetaData>
             <entry key="effectIndex" val="0"/>
            </MetaData>
           </GenericEffect>
          </Effects>
          <Attributes>
           <Attribute id="458" value="" name="ident"/>
          </Attributes>
          <ExtraData>
           <Entry key="ZoomPanBin">
            <ZoomPanBin id="459"  >
             <ZoomPanKeyframes>
              <ZoomPanKeyframe id="460" timeRangeEnd="-9999999/1" timeRangeDuration="0/1" interpolaterName="linr"  />
             </ZoomPanKeyframes>
            </ZoomPanBin>
           </Entry>
           <Entry key="CursorEffectBin">
            <CursorEffectBin id="461"  >
             <CursorEffectKeyframes>
              <CursorEffectKeyframe id="462" timeRangeEnd="-9999999/1" timeRangeDuration="0/1" interpolaterName=""  />
             </CursorEffectKeyframes>
            </CursorEffectBin>
           </Entry>
          </ExtraData>
         </ScreenVMFile>
         <MetaData>
          <entry key="AutoAppliedSmartFocus" val="False"/>
          <entry key="WinSubProjectDisplayName" val=""/>
         </MetaData>
        </UnifiedMedia>
       </Medias>
      </GenericTrack>
      <GenericTrack id="463"  >
       <Attributes>
        <Attribute id="464" value="" name="ident"/>
        <Attribute id="465" value="0" name="audioMuted"/>
        <Attribute id="466" value="0" name="videoHidden"/>
       </Attributes>
       <MetaData>
        <entry key="IsLocked" val="False"/>
        <entry key="WinTrackHeight" val="62"/>
       </MetaData>
       <Medias>
        <UnifiedMedia id="467"  >
         <AMFile id="468" start="3161" duration="772" scalar="1/1" mediaStart="0/1" mediaDuration="772/1" trackNumber="1" src="11" channelNumber="0,1" >
          <Parameters>
           <InterpolatingParam id="469" interp="linr"  time="0/1" value="1" leadInLength="0/1"  name="volume"/>
           <Parameter id="470"  name="captions"/>
          </Parameters>
          <Attributes>
           <Attribute id="471" value="" name="ident"/>
           <Attribute id="472" value="44100" name="sampleRate"/>
           <Attribute id="473" value="16" name="bitDepth"/>
           <Attribute id="474" value="1" name="gain"/>
           <Attribute id="475" value="0" name="mixToMono"/>
          </Attributes>
         </AMFile>
         <ScreenVMFile id="476" start="3161" duration="772" scalar="1/1" mediaStart="0/1" mediaDuration="772/1" trackNumber="0" src="11" >
          <Transformer>
           <VectorParam id="477"  name="translation">
            <InterpolatingParam id="478" interp="linr"  time="-9999999/1" value="0" leadInLength="0/1"  />
            <InterpolatingParam id="479" interp="linr"  time="-9999999/1" value="0" leadInLength="0/1"  />
            <InterpolatingParam id="480" interp="linr"  time="-9999999/1" value="0" leadInLength="0/1"  />
           </VectorParam>
           <VectorParam id="481"  name="rotation">
            <InterpolatingParam id="482" interp="linr"  time="-9999999/1" value="0" leadInLength="0/1"  />
            <InterpolatingParam id="483" interp="linr"  time="-9999999/1" value="0" leadInLength="0/1"  />
            <InterpolatingParam id="484" interp="linr"  time="-9999999/1" value="0" leadInLength="0/1"  />
           </VectorParam>
           <VectorParam id="485"  name="shear">
            <InterpolatingParam id="486" interp="linr"  time="-9999999/1" value="0" leadInLength="0/1"  />
            <InterpolatingParam id="487" interp="linr"  time="-9999999/1" value="0" leadInLength="0/1"  />
            <InterpolatingParam id="488" interp="linr"  time="-9999999/1" value="0" leadInLength="0/1"  />
           </VectorParam>
           <VectorParam id="489"  name="scale">
            <InterpolatingParam id="490" interp="linr"  time="-9999999/1" value="0.66666666666666663" leadInLength="0/1"  />
            <InterpolatingParam id="491" interp="linr"  time="-9999999/1" value="0.66666666666666663" leadInLength="0/1"  />
            <InterpolatingParam id="492" interp="linr"  time="-9999999/1" value="1" leadInLength="0/1"  />
           </VectorParam>
           <VectorParam id="493"  name="anchor">
            <InterpolatingParam id="494" interp="linr"  time="0/1" value="0" leadInLength="0/1"  />
            <InterpolatingParam id="495" interp="linr"  time="0/1" value="0" leadInLength="0/1"  />
            <InterpolatingParam id="496" interp="linr"  time="0/1" value="0" leadInLength="0/1"  />
           </VectorParam>
          </Transformer>
          <Parameters>
           <VectorParam id="497"  name="sourceCrop">
            <InterpolatingParam id="498" interp="linr"  time="0/1" value="0" leadInLength="0/1"  />
            <InterpolatingParam id="499" interp="linr"  time="0/1" value="0" leadInLength="0/1"  />
            <InterpolatingParam id="500" interp="linr"  time="0/1" value="0" leadInLength="0/1"  />
            <InterpolatingParam id="501" interp="linr"  time="0/1" value="0" leadInLength="0/1"  />
           </VectorParam>
           <VectorParam id="502"  name="geometryCrop">
            <InterpolatingParam id="503" interp="linr"  time="-9999999/1" value="0" leadInLength="0/1"  />
            <InterpolatingParam id="504" interp="linr"  time="-9999999/1" value="0" leadInLength="0/1"  />
            <InterpolatingParam id="505" interp="linr"  time="-9999999/1" value="0" leadInLength="0/1"  />
            <InterpolatingParam id="506" interp="linr"  time="-9999999/1" value="0" leadInLength="0/1"  />
           </VectorParam>
           <InterpolatingParam id="507" interp="linr"  time="-9999999/1" value="1" leadInLength="0/1"  name="opacity"/>
           <InterpolatingParam id="508" interp="linr"  time="0/1" value="1" leadInLength="0/1"  name="cursorOpacity"/>
           <InterpolatingParam id="509" interp="linr"  time="0/1" value="1" leadInLength="0/1"  name="cursorScale"/>
          </Parameters>
          <Effects>
           <GenericEffect id="510" name = "CursorBaseEffectName" >
            <Parameters>
            <InterpolatingParam id="511" interp="linr"  time="-9999999/1" value="1" leadInLength="0/1"   name="cursorSize"/>
            <InterpolatingParam id="512" interp="linr"  time="-9999999/1" value="0" leadInLength="0/1"   name="highlightBlurRadius"/>
            <InterpolatingParam id="513" interp="linr"  time="-9999999/1" value="0" leadInLength="0/1"   name="highlightColorBlue"/>
            <InterpolatingParam id="514" interp="linr"  time="-9999999/1" value="255" leadInLength="0/1"   name="highlightColorGreen"/>
            <InterpolatingParam id="515" interp="linr"  time="-9999999/1" value="255" leadInLength="0/1"   name="highlightColorRed"/>
            <InterpolatingParam id="516" interp="linr"  time="-9999999/1" value="5" leadInLength="0/1"   name="highlightFeatherSize"/>
            <InterpolatingParam id="517" interp="linr"  time="-9999999/1" value="2" leadInLength="0/1"   name="highlightMagnification"/>
            <InterpolatingParam id="518" interp="linr"  time="-9999999/1" value="1" leadInLength="0/1"   name="highlightOpacity"/>
            <InterpolatingParam id="519" interp="linr"  time="-9999999/1" value="45" leadInLength="0/1"   name="highlightSize"/>
            <Parameter id="520"   name="highlightType">
             <Keyframes>
             <Keyframe id="521"  time="-9999999/1" value="0" leadInLength="0/1"  />
             </Keyframes>
            </Parameter>
            <InterpolatingParam id="522" interp="linr"  time="-9999999/1" value="0" leadInLength="0/1"   name="leftClickColorBlue"/>
            <InterpolatingParam id="523" interp="linr"  time="-9999999/1" value="0" leadInLength="0/1"   name="leftClickColorGreen"/>
            <InterpolatingParam id="524" interp="linr"  time="-9999999/1" value="255" leadInLength="0/1"   name="leftClickColorRed"/>
            <InterpolatingParam id="525" interp="linr"  time="-9999999/1" value="0.80000000000000004" leadInLength="0/1"   name="leftClickDuration"/>
            <InterpolatingParam id="526" interp="linr"  time="-9999999/1" value="20" leadInLength="0/1"   name="leftClickSize"/>
            <Parameter id="527"   name="leftClickSoundFilename">
             <Keyframes>
             <Keyframe id="528"  time="-9999999/1" value="" leadInLength="0/1"  />
             </Keyframes>
            </Parameter>
            <InterpolatingParam id="529" interp="linr"  time="-9999999/1" value="1" leadInLength="0/1"   name="leftClickSoundVolume"/>
            <Parameter id="530"   name="leftClickType">
             <Keyframes>
             <Keyframe id="531"  time="-9999999/1" value="0" leadInLength="0/1"  />
             </Keyframes>
            </Parameter>
            <InterpolatingParam id="532" interp="linr"  time="-9999999/1" value="1" leadInLength="0/1"   name="opacity"/>
            <InterpolatingParam id="533" interp="linr"  time="-9999999/1" value="255" leadInLength="0/1"   name="rightClickColorBlue"/>
            <InterpolatingParam id="534" interp="linr"  time="-9999999/1" value="0" leadInLength="0/1"   name="rightClickColorGreen"/>
            <InterpolatingParam id="535" interp="linr"  time="-9999999/1" value="0" leadInLength="0/1"   name="rightClickColorRed"/>
            <InterpolatingParam id="536" interp="linr"  time="-9999999/1" value="0.80000000000000004" leadInLength="0/1"   name="rightClickDuration"/>
            <InterpolatingParam id="537" interp="linr"  time="-9999999/1" value="20" leadInLength="0/1"   name="rightClickSize"/>
            <Parameter id="538"   name="rightClickSoundFilename">
             <Keyframes>
             <Keyframe id="539"  time="-9999999/1" value="" leadInLength="0/1"  />
             </Keyframes>
            </Parameter>
            <InterpolatingParam id="540" interp="linr"  time="-9999999/1" value="1" leadInLength="0/1"   name="rightClickSoundVolume"/>
            <Parameter id="541"   name="rightClickType">
             <Keyframes>
             <Keyframe id="542"  time="-9999999/1" value="0" leadInLength="0/1"  />
             </Keyframes>
            </Parameter>
            </Parameters>
            <MetaData>
             <entry key="effectIndex" val="0"/>
            </MetaData>
           </GenericEffect>
          </Effects>
          <Attributes>
           <Attribute id="543" value="" name="ident"/>
          </Attributes>
          <ExtraData>
           <Entry key="ZoomPanBin">
            <ZoomPanBin id="544"  >
             <ZoomPanKeyframes>
              <ZoomPanKeyframe id="545" timeRangeEnd="-9999999/1" timeRangeDuration="0/1" interpolaterName="linr"  />
             </ZoomPanKeyframes>
            </ZoomPanBin>
           </Entry>
           <Entry key="CursorEffectBin">
            <CursorEffectBin id="546"  >
             <CursorEffectKeyframes>
              <CursorEffectKeyframe id="547" timeRangeEnd="-9999999/1" timeRangeDuration="0/1" interpolaterName=""  />
             </CursorEffectKeyframes>
            </CursorEffectBin>
           </Entry>
          </ExtraData>
         </ScreenVMFile>
         <MetaData>
          <entry key="AutoAppliedSmartFocus" val="False"/>
          <entry key="WinSubProjectDisplayName" val=""/>
         </MetaData>
        </UnifiedMedia>
        <UnifiedMedia id="548"  >
         <AMFile id="549" start="3933" duration="385" scalar="1/1" mediaStart="1190/1" mediaDuration="385/1" trackNumber="1" src="11" channelNumber="0,1" >
          <Parameters>
           <InterpolatingParam id="550" interp="linr"  time="0/1" value="1" leadInLength="0/1"  name="volume"/>
           <Parameter id="551"  name="captions"/>
          </Parameters>
          <Attributes>
           <Attribute id="552" value="" name="ident"/>
           <Attribute id="553" value="44100" name="sampleRate"/>
           <Attribute id="554" value="16" name="bitDepth"/>
           <Attribute id="555" value="1" name="gain"/>
           <Attribute id="556" value="0" name="mixToMono"/>
          </Attributes>
         </AMFile>
         <ScreenVMFile id="557" start="3933" duration="385" scalar="1/1" mediaStart="1190/1" mediaDuration="385/1" trackNumber="0" src="11" >
          <Transformer>
           <VectorParam id="558"  name="translation">
            <InterpolatingParam id="559" interp="linr"  time="-9999999/1" value="0" leadInLength="0/1"  />
            <InterpolatingParam id="560" interp="linr"  time="-9999999/1" value="0" leadInLength="0/1"  />
            <InterpolatingParam id="561" interp="linr"  time="-9999999/1" value="0" leadInLength="0/1"  />
           </VectorParam>
           <VectorParam id="562"  name="rotation">
            <InterpolatingParam id="563" interp="linr"  time="-9999999/1" value="0" leadInLength="0/1"  />
            <InterpolatingParam id="564" interp="linr"  time="-9999999/1" value="0" leadInLength="0/1"  />
            <InterpolatingParam id="565" interp="linr"  time="-9999999/1" value="0" leadInLength="0/1"  />
           </VectorParam>
           <VectorParam id="566"  name="shear">
            <InterpolatingParam id="567" interp="linr"  time="-9999999/1" value="0" leadInLength="0/1"  />
            <InterpolatingParam id="568" interp="linr"  time="-9999999/1" value="0" leadInLength="0/1"  />
            <InterpolatingParam id="569" interp="linr"  time="-9999999/1" value="0" leadInLength="0/1"  />
           </VectorParam>
           <VectorParam id="570"  name="scale">
            <InterpolatingParam id="571" interp="linr"  time="-9999999/1" value="0.66666666666666663" leadInLength="0/1"  />
            <InterpolatingParam id="572" interp="linr"  time="-9999999/1" value="0.66666666666666663" leadInLength="0/1"  />
            <InterpolatingParam id="573" interp="linr"  time="-9999999/1" value="1" leadInLength="0/1"  />
           </VectorParam>
           <VectorParam id="574"  name="anchor">
            <InterpolatingParam id="575" interp="linr"  time="0/1" value="0" leadInLength="0/1"  />
            <InterpolatingParam id="576" interp="linr"  time="0/1" value="0" leadInLength="0/1"  />
            <InterpolatingParam id="577" interp="linr"  time="0/1" value="0" leadInLength="0/1"  />
           </VectorParam>
          </Transformer>
          <Parameters>
           <VectorParam id="578"  name="sourceCrop">
            <InterpolatingParam id="579" interp="linr"  time="0/1" value="0" leadInLength="0/1"  />
            <InterpolatingParam id="580" interp="linr"  time="0/1" value="0" leadInLength="0/1"  />
            <InterpolatingParam id="581" interp="linr"  time="0/1" value="0" leadInLength="0/1"  />
            <InterpolatingParam id="582" interp="linr"  time="0/1" value="0" leadInLength="0/1"  />
           </VectorParam>
           <VectorParam id="583"  name="geometryCrop">
            <InterpolatingParam id="584" interp="linr"  time="-9999999/1" value="0" leadInLength="0/1"  />
            <InterpolatingParam id="585" interp="linr"  time="-9999999/1" value="0" leadInLength="0/1"  />
            <InterpolatingParam id="586" interp="linr"  time="-9999999/1" value="0" leadInLength="0/1"  />
            <InterpolatingParam id="587" interp="linr"  time="-9999999/1" value="0" leadInLength="0/1"  />
           </VectorParam>
           <InterpolatingParam id="588" interp="linr"  time="-9999999/1" value="1" leadInLength="0/1"  name="opacity"/>
           <InterpolatingParam id="589" interp="linr"  time="0/1" value="1" leadInLength="0/1"  name="cursorOpacity"/>
           <InterpolatingParam id="590" interp="linr"  time="0/1" value="1" leadInLength="0/1"  name="cursorScale"/>
          </Parameters>
          <Effects>
           <GenericEffect id="591" name = "CursorBaseEffectName" >
            <Parameters>
            <InterpolatingParam id="592" interp="linr"  time="-9999999/1" value="1" leadInLength="0/1"   name="cursorSize"/>
            <InterpolatingParam id="593" interp="linr"  time="-9999999/1" value="0" leadInLength="0/1"   name="highlightBlurRadius"/>
            <InterpolatingParam id="594" interp="linr"  time="-9999999/1" value="0" leadInLength="0/1"   name="highlightColorBlue"/>
            <InterpolatingParam id="595" interp="linr"  time="-9999999/1" value="255" leadInLength="0/1"   name="highlightColorGreen"/>
            <InterpolatingParam id="596" interp="linr"  time="-9999999/1" value="255" leadInLength="0/1"   name="highlightColorRed"/>
            <InterpolatingParam id="597" interp="linr"  time="-9999999/1" value="5" leadInLength="0/1"   name="highlightFeatherSize"/>
            <InterpolatingParam id="598" interp="linr"  time="-9999999/1" value="2" leadInLength="0/1"   name="highlightMagnification"/>
            <InterpolatingParam id="599" interp="linr"  time="-9999999/1" value="1" leadInLength="0/1"   name="highlightOpacity"/>
            <InterpolatingParam id="600" interp="linr"  time="-9999999/1" value="45" leadInLength="0/1"   name="highlightSize"/>
            <Parameter id="601"   name="highlightType">
             <Keyframes>
             <Keyframe id="602"  time="-9999999/1" value="0" leadInLength="0/1"  />
             </Keyframes>
            </Parameter>
            <InterpolatingParam id="603" interp="linr"  time="-9999999/1" value="0" leadInLength="0/1"   name="leftClickColorBlue"/>
            <InterpolatingParam id="604" interp="linr"  time="-9999999/1" value="0" leadInLength="0/1"   name="leftClickColorGreen"/>
            <InterpolatingParam id="605" interp="linr"  time="-9999999/1" value="255" leadInLength="0/1"   name="leftClickColorRed"/>
            <InterpolatingParam id="606" interp="linr"  time="-9999999/1" value="0.80000000000000004" leadInLength="0/1"   name="leftClickDuration"/>
            <InterpolatingParam id="607" interp="linr"  time="-9999999/1" value="20" leadInLength="0/1"   name="leftClickSize"/>
            <Parameter id="608"   name="leftClickSoundFilename">
             <Keyframes>
             <Keyframe id="609"  time="-9999999/1" value="" leadInLength="0/1"  />
             </Keyframes>
            </Parameter>
            <InterpolatingParam id="610" interp="linr"  time="-9999999/1" value="1" leadInLength="0/1"   name="leftClickSoundVolume"/>
            <Parameter id="611"   name="leftClickType">
             <Keyframes>
             <Keyframe id="612"  time="-9999999/1" value="0" leadInLength="0/1"  />
             </Keyframes>
            </Parameter>
            <InterpolatingParam id="613" interp="linr"  time="-9999999/1" value="1" leadInLength="0/1"   name="opacity"/>
            <InterpolatingParam id="614" interp="linr"  time="-9999999/1" value="255" leadInLength="0/1"   name="rightClickColorBlue"/>
            <InterpolatingParam id="615" interp="linr"  time="-9999999/1" value="0" leadInLength="0/1"   name="rightClickColorGreen"/>
            <InterpolatingParam id="616" interp="linr"  time="-9999999/1" value="0" leadInLength="0/1"   name="rightClickColorRed"/>
            <InterpolatingParam id="617" interp="linr"  time="-9999999/1" value="0.80000000000000004" leadInLength="0/1"   name="rightClickDuration"/>
            <InterpolatingParam id="618" interp="linr"  time="-9999999/1" value="20" leadInLength="0/1"   name="rightClickSize"/>
            <Parameter id="619"   name="rightClickSoundFilename">
             <Keyframes>
             <Keyframe id="620"  time="-9999999/1" value="" leadInLength="0/1"  />
             </Keyframes>
            </Parameter>
            <InterpolatingParam id="621" interp="linr"  time="-9999999/1" value="1" leadInLength="0/1"   name="rightClickSoundVolume"/>
            <Parameter id="622"   name="rightClickType">
             <Keyframes>
             <Keyframe id="623"  time="-9999999/1" value="0" leadInLength="0/1"  />
             </Keyframes>
            </Parameter>
            </Parameters>
            <MetaData>
             <entry key="effectIndex" val="0"/>
            </MetaData>
           </GenericEffect>
          </Effects>
          <Attributes>
           <Attribute id="624" value="" name="ident"/>
          </Attributes>
          <ExtraData>
           <Entry key="ZoomPanBin">
            <ZoomPanBin id="625"  >
             <ZoomPanKeyframes>
              <ZoomPanKeyframe id="626" timeRangeEnd="-9999999/1" timeRangeDuration="0/1" interpolaterName="linr"  />
             </ZoomPanKeyframes>
            </ZoomPanBin>
           </Entry>
           <Entry key="CursorEffectBin">
            <CursorEffectBin id="627"  >
             <CursorEffectKeyframes>
              <CursorEffectKeyframe id="628" timeRangeEnd="-9999999/1" timeRangeDuration="0/1" interpolaterName=""  />
             </CursorEffectKeyframes>
            </CursorEffectBin>
           </Entry>
          </ExtraData>
         </ScreenVMFile>
         <MetaData>
          <entry key="AutoAppliedSmartFocus" val="False"/>
          <entry key="WinSubProjectDisplayName" val=""/>
         </MetaData>
        </UnifiedMedia>
       </Medias>
      </GenericTrack>
      <GenericTrack id="629"  >
       <Attributes>
        <Attribute id="630" value="" name="ident"/>
        <Attribute id="631" value="0" name="audioMuted"/>
        <Attribute id="632" value="0" name="videoHidden"/>
       </Attributes>
       <MetaData>
        <entry key="IsLocked" val="False"/>
        <entry key="WinTrackHeight" val="62"/>
       </MetaData>
       <Medias>
        <AMFile id="633" start="4080" duration="210" scalar="1/1" mediaStart="0/1" mediaDuration="210/1" trackNumber="0" src="13" channelNumber="0,1" >
         <Parameters>
          <InterpolatingParam id="634" interp="linr"  time="0/1" value="1" leadInLength="0/1"  name="volume"/>
          <Parameter id="635"  name="captions"/>
         </Parameters>
         <Attributes>
          <Attribute id="636" value="" name="ident"/>
          <Attribute id="637" value="44100" name="sampleRate"/>
          <Attribute id="638" value="16" name="bitDepth"/>
          <Attribute id="639" value="1" name="gain"/>
          <Attribute id="640" value="0" name="mixToMono"/>
         </Attributes>
         <MetaData>
          <entry key="WinSubProjectDisplayName" val=""/>
         </MetaData>
        </AMFile>
        <UnifiedMedia id="641"  >
         <AMFile id="642" start="4318" duration="1614" scalar="1/1" mediaStart="0/1" mediaDuration="1614/1" trackNumber="1" src="14" channelNumber="0,1" >
          <Parameters>
           <InterpolatingParam id="643" interp="linr"  name="volume">
            <Keyframes>
            <Keyframe id="644"  time="0/1" value="1" leadInLength="0/1"  />
            <Keyframe id="645"  time="1447/1" value="1" leadInLength="0/1"  />
            <Keyframe id="646"  time="1448/1" value="0" leadInLength="0/1"  />
            <Keyframe id="647"  time="1486/1" value="0" leadInLength="0/1"  />
            <Keyframe id="648"  time="1487/1" value="1" leadInLength="0/1"  />
            </Keyframes>
           </InterpolatingParam>
           <Parameter id="649"  name="captions"/>
          </Parameters>
          <Attributes>
           <Attribute id="650" value="" name="ident"/>
           <Attribute id="651" value="44100" name="sampleRate"/>
           <Attribute id="652" value="16" name="bitDepth"/>
           <Attribute id="653" value="1" name="gain"/>
           <Attribute id="654" value="0" name="mixToMono"/>
          </Attributes>
         </AMFile>
         <ScreenVMFile id="655" start="4318" duration="1614" scalar="1/1" mediaStart="0/1" mediaDuration="1614/1" trackNumber="0" src="14" >
          <Transformer>
           <VectorParam id="656"  name="translation">
            <InterpolatingParam id="657" interp="linr"  time="-9999999/1" value="168.0000000000102" leadInLength="0/1"  />
            <InterpolatingParam id="658" interp="linr"  time="-9999999/1" value="47.999999999991417" leadInLength="0/1"  />
            <InterpolatingParam id="659" interp="linr"  time="-9999999/1" value="0" leadInLength="0/1"  />
           </VectorParam>
           <VectorParam id="660"  name="rotation">
            <InterpolatingParam id="661" interp="linr"  time="-9999999/1" value="0" leadInLength="0/1"  />
            <InterpolatingParam id="662" interp="linr"  time="-9999999/1" value="0" leadInLength="0/1"  />
            <InterpolatingParam id="663" interp="linr"  time="-9999999/1" value="0" leadInLength="0/1"  />
           </VectorParam>
           <VectorParam id="664"  name="shear">
            <InterpolatingParam id="665" interp="linr"  time="-9999999/1" value="0" leadInLength="0/1"  />
            <InterpolatingParam id="666" interp="linr"  time="-9999999/1" value="0" leadInLength="0/1"  />
            <InterpolatingParam id="667" interp="linr"  time="-9999999/1" value="0" leadInLength="0/1"  />
           </VectorParam>
           <VectorParam id="668"  name="scale">
            <InterpolatingParam id="669" interp="linr"  time="-9999999/1" value="0.66666666666666663" leadInLength="0/1"  />
            <InterpolatingParam id="670" interp="linr"  time="-9999999/1" value="0.66666666666666663" leadInLength="0/1"  />
            <InterpolatingParam id="671" interp="linr"  time="-9999999/1" value="1" leadInLength="0/1"  />
           </VectorParam>
           <VectorParam id="672"  name="anchor">
            <InterpolatingParam id="673" interp="linr"  time="0/1" value="0" leadInLength="0/1"  />
            <InterpolatingParam id="674" interp="linr"  time="0/1" value="0" leadInLength="0/1"  />
            <InterpolatingParam id="675" interp="linr"  time="0/1" value="0" leadInLength="0/1"  />
           </VectorParam>
          </Transformer>
          <Parameters>
           <VectorParam id="676"  name="sourceCrop">
            <InterpolatingParam id="677" interp="linr"  time="0/1" value="0" leadInLength="0/1"  />
            <InterpolatingParam id="678" interp="linr"  time="0/1" value="0" leadInLength="0/1"  />
            <InterpolatingParam id="679" interp="linr"  time="0/1" value="0" leadInLength="0/1"  />
            <InterpolatingParam id="680" interp="linr"  time="0/1" value="0" leadInLength="0/1"  />
           </VectorParam>
           <VectorParam id="681"  name="geometryCrop">
            <InterpolatingParam id="682" interp="linr"  time="-9999999/1" value="0" leadInLength="0/1"  />
            <InterpolatingParam id="683" interp="linr"  time="-9999999/1" value="0" leadInLength="0/1"  />
            <InterpolatingParam id="684" interp="linr"  time="-9999999/1" value="0" leadInLength="0/1"  />
            <InterpolatingParam id="685" interp="linr"  time="-9999999/1" value="0" leadInLength="0/1"  />
           </VectorParam>
           <InterpolatingParam id="686" interp="linr"  time="-9999999/1" value="1" leadInLength="0/1"  name="opacity"/>
           <InterpolatingParam id="687" interp="linr"  time="0/1" value="1" leadInLength="0/1"  name="cursorOpacity"/>
           <InterpolatingParam id="688" interp="linr"  time="0/1" value="1" leadInLength="0/1"  name="cursorScale"/>
          </Parameters>
          <Effects>
           <GenericEffect id="689" name = "CursorBaseEffectName" >
            <Parameters>
            <InterpolatingParam id="690" interp="linr"  time="-9999999/1" value="1" leadInLength="0/1"   name="cursorSize"/>
            <InterpolatingParam id="691" interp="linr"  time="-9999999/1" value="0" leadInLength="0/1"   name="highlightBlurRadius"/>
            <InterpolatingParam id="692" interp="linr"  time="-9999999/1" value="0" leadInLength="0/1"   name="highlightColorBlue"/>
            <InterpolatingParam id="693" interp="linr"  time="-9999999/1" value="255" leadInLength="0/1"   name="highlightColorGreen"/>
            <InterpolatingParam id="694" interp="linr"  time="-9999999/1" value="255" leadInLength="0/1"   name="highlightColorRed"/>
            <InterpolatingParam id="695" interp="linr"  time="-9999999/1" value="5" leadInLength="0/1"   name="highlightFeatherSize"/>
            <InterpolatingParam id="696" interp="linr"  time="-9999999/1" value="2" leadInLength="0/1"   name="highlightMagnification"/>
            <InterpolatingParam id="697" interp="linr"  time="-9999999/1" value="1" leadInLength="0/1"   name="highlightOpacity"/>
            <InterpolatingParam id="698" interp="linr"  time="-9999999/1" value="45" leadInLength="0/1"   name="highlightSize"/>
            <Parameter id="699"   name="highlightType">
             <Keyframes>
             <Keyframe id="700"  time="-9999999/1" value="0" leadInLength="0/1"  />
             </Keyframes>
            </Parameter>
            <InterpolatingParam id="701" interp="linr"  time="-9999999/1" value="0" leadInLength="0/1"   name="leftClickColorBlue"/>
            <InterpolatingParam id="702" interp="linr"  time="-9999999/1" value="0" leadInLength="0/1"   name="leftClickColorGreen"/>
            <InterpolatingParam id="703" interp="linr"  time="-9999999/1" value="255" leadInLength="0/1"   name="leftClickColorRed"/>
            <InterpolatingParam id="704" interp="linr"  time="-9999999/1" value="0.80000000000000004" leadInLength="0/1"   name="leftClickDuration"/>
            <InterpolatingParam id="705" interp="linr"  time="-9999999/1" value="20" leadInLength="0/1"   name="leftClickSize"/>
            <Parameter id="706"   name="leftClickSoundFilename">
             <Keyframes>
             <Keyframe id="707"  time="-9999999/1" value="" leadInLength="0/1"  />
             </Keyframes>
            </Parameter>
            <InterpolatingParam id="708" interp="linr"  time="-9999999/1" value="1" leadInLength="0/1"   name="leftClickSoundVolume"/>
            <Parameter id="709"   name="leftClickType">
             <Keyframes>
             <Keyframe id="710"  time="-9999999/1" value="0" leadInLength="0/1"  />
             </Keyframes>
            </Parameter>
            <InterpolatingParam id="711" interp="linr"  time="-9999999/1" value="1" leadInLength="0/1"   name="opacity"/>
            <InterpolatingParam id="712" interp="linr"  time="-9999999/1" value="255" leadInLength="0/1"   name="rightClickColorBlue"/>
            <InterpolatingParam id="713" interp="linr"  time="-9999999/1" value="0" leadInLength="0/1"   name="rightClickColorGreen"/>
            <InterpolatingParam id="714" interp="linr"  time="-9999999/1" value="0" leadInLength="0/1"   name="rightClickColorRed"/>
            <InterpolatingParam id="715" interp="linr"  time="-9999999/1" value="0.80000000000000004" leadInLength="0/1"   name="rightClickDuration"/>
            <InterpolatingParam id="716" interp="linr"  time="-9999999/1" value="20" leadInLength="0/1"   name="rightClickSize"/>
            <Parameter id="717"   name="rightClickSoundFilename">
             <Keyframes>
             <Keyframe id="718"  time="-9999999/1" value="" leadInLength="0/1"  />
             </Keyframes>
            </Parameter>
            <InterpolatingParam id="719" interp="linr"  time="-9999999/1" value="1" leadInLength="0/1"   name="rightClickSoundVolume"/>
            <Parameter id="720"   name="rightClickType">
             <Keyframes>
             <Keyframe id="721"  time="-9999999/1" value="0" leadInLength="0/1"  />
             </Keyframes>
            </Parameter>
            </Parameters>
            <MetaData>
             <entry key="effectIndex" val="0"/>
            </MetaData>
           </GenericEffect>
          </Effects>
          <Attributes>
           <Attribute id="722" value="" name="ident"/>
          </Attributes>
          <ExtraData>
           <Entry key="ZoomPanBin">
            <ZoomPanBin id="723"  >
             <ZoomPanKeyframes>
              <ZoomPanKeyframe id="724" timeRangeEnd="-9999999/1" timeRangeDuration="0/1" interpolaterName="linr"  />
             </ZoomPanKeyframes>
            </ZoomPanBin>
           </Entry>
           <Entry key="CursorEffectBin">
            <CursorEffectBin id="725"  >
             <CursorEffectKeyframes>
              <CursorEffectKeyframe id="726" timeRangeEnd="-9999999/1" timeRangeDuration="0/1" interpolaterName=""  />
             </CursorEffectKeyframes>
            </CursorEffectBin>
           </Entry>
          </ExtraData>
         </ScreenVMFile>
         <MetaData>
          <entry key="AutoAppliedSmartFocus" val="False"/>
          <entry key="WinSubProjectDisplayName" val=""/>
         </MetaData>
        </UnifiedMedia>
        <UnifiedMedia id="727"  >
         <AMFile id="728" start="5932" duration="142" scalar="1/1" mediaStart="1684/1" mediaDuration="142/1" trackNumber="1" src="14" channelNumber="0,1" >
          <Parameters>
           <InterpolatingParam id="729" interp="linr"  time="0/1" value="1" leadInLength="0/1"  name="volume"/>
           <Parameter id="730"  name="captions"/>
          </Parameters>
          <Attributes>
           <Attribute id="731" value="" name="ident"/>
           <Attribute id="732" value="44100" name="sampleRate"/>
           <Attribute id="733" value="16" name="bitDepth"/>
           <Attribute id="734" value="1" name="gain"/>
           <Attribute id="735" value="0" name="mixToMono"/>
          </Attributes>
         </AMFile>
         <ScreenVMFile id="736" start="5932" duration="142" scalar="1/1" mediaStart="1684/1" mediaDuration="142/1" trackNumber="0" src="14" >
          <Transformer>
           <VectorParam id="737"  name="translation">
            <InterpolatingParam id="738" interp="linr"  time="-9999999/1" value="168.0000000000102" leadInLength="0/1"  />
            <InterpolatingParam id="739" interp="linr"  time="-9999999/1" value="47.999999999991417" leadInLength="0/1"  />
            <InterpolatingParam id="740" interp="linr"  time="-9999999/1" value="0" leadInLength="0/1"  />
           </VectorParam>
           <VectorParam id="741"  name="rotation">
            <InterpolatingParam id="742" interp="linr"  time="-9999999/1" value="0" leadInLength="0/1"  />
            <InterpolatingParam id="743" interp="linr"  time="-9999999/1" value="0" leadInLength="0/1"  />
            <InterpolatingParam id="744" interp="linr"  time="-9999999/1" value="0" leadInLength="0/1"  />
           </VectorParam>
           <VectorParam id="745"  name="shear">
            <InterpolatingParam id="746" interp="linr"  time="-9999999/1" value="0" leadInLength="0/1"  />
            <InterpolatingParam id="747" interp="linr"  time="-9999999/1" value="0" leadInLength="0/1"  />
            <InterpolatingParam id="748" interp="linr"  time="-9999999/1" value="0" leadInLength="0/1"  />
           </VectorParam>
           <VectorParam id="749"  name="scale">
            <InterpolatingParam id="750" interp="linr"  time="-9999999/1" value="0.66666666666666663" leadInLength="0/1"  />
            <InterpolatingParam id="751" interp="linr"  time="-9999999/1" value="0.66666666666666663" leadInLength="0/1"  />
            <InterpolatingParam id="752" interp="linr"  time="-9999999/1" value="1" leadInLength="0/1"  />
           </VectorParam>
           <VectorParam id="753"  name="anchor">
            <InterpolatingParam id="754" interp="linr"  time="0/1" value="0" leadInLength="0/1"  />
            <InterpolatingParam id="755" interp="linr"  time="0/1" value="0" leadInLength="0/1"  />
            <InterpolatingParam id="756" interp="linr"  time="0/1" value="0" leadInLength="0/1"  />
           </VectorParam>
          </Transformer>
          <Parameters>
           <VectorParam id="757"  name="sourceCrop">
            <InterpolatingParam id="758" interp="linr"  time="0/1" value="0" leadInLength="0/1"  />
            <InterpolatingParam id="759" interp="linr"  time="0/1" value="0" leadInLength="0/1"  />
            <InterpolatingParam id="760" interp="linr"  time="0/1" value="0" leadInLength="0/1"  />
            <InterpolatingParam id="761" interp="linr"  time="0/1" value="0" leadInLength="0/1"  />
           </VectorParam>
           <VectorParam id="762"  name="geometryCrop">
            <InterpolatingParam id="763" interp="linr"  time="-9999999/1" value="0" leadInLength="0/1"  />
            <InterpolatingParam id="764" interp="linr"  time="-9999999/1" value="0" leadInLength="0/1"  />
            <InterpolatingParam id="765" interp="linr"  time="-9999999/1" value="0" leadInLength="0/1"  />
            <InterpolatingParam id="766" interp="linr"  time="-9999999/1" value="0" leadInLength="0/1"  />
           </VectorParam>
           <InterpolatingParam id="767" interp="linr"  time="-9999999/1" value="1" leadInLength="0/1"  name="opacity"/>
           <InterpolatingParam id="768" interp="linr"  time="0/1" value="1" leadInLength="0/1"  name="cursorOpacity"/>
           <InterpolatingParam id="769" interp="linr"  time="0/1" value="1" leadInLength="0/1"  name="cursorScale"/>
          </Parameters>
          <Effects>
           <GenericEffect id="770" name = "CursorBaseEffectName" >
            <Parameters>
            <InterpolatingParam id="771" interp="linr"  time="-9999999/1" value="1" leadInLength="0/1"   name="cursorSize"/>
            <InterpolatingParam id="772" interp="linr"  time="-9999999/1" value="0" leadInLength="0/1"   name="highlightBlurRadius"/>
            <InterpolatingParam id="773" interp="linr"  time="-9999999/1" value="0" leadInLength="0/1"   name="highlightColorBlue"/>
            <InterpolatingParam id="774" interp="linr"  time="-9999999/1" value="255" leadInLength="0/1"   name="highlightColorGreen"/>
            <InterpolatingParam id="775" interp="linr"  time="-9999999/1" value="255" leadInLength="0/1"   name="highlightColorRed"/>
            <InterpolatingParam id="776" interp="linr"  time="-9999999/1" value="5" leadInLength="0/1"   name="highlightFeatherSize"/>
            <InterpolatingParam id="777" interp="linr"  time="-9999999/1" value="2" leadInLength="0/1"   name="highlightMagnification"/>
            <InterpolatingParam id="778" interp="linr"  time="-9999999/1" value="1" leadInLength="0/1"   name="highlightOpacity"/>
            <InterpolatingParam id="779" interp="linr"  time="-9999999/1" value="45" leadInLength="0/1"   name="highlightSize"/>
            <Parameter id="780"   name="highlightType">
             <Keyframes>
             <Keyframe id="781"  time="-9999999/1" value="0" leadInLength="0/1"  />
             </Keyframes>
            </Parameter>
            <InterpolatingParam id="782" interp="linr"  time="-9999999/1" value="0" leadInLength="0/1"   name="leftClickColorBlue"/>
            <InterpolatingParam id="783" interp="linr"  time="-9999999/1" value="0" leadInLength="0/1"   name="leftClickColorGreen"/>
            <InterpolatingParam id="784" interp="linr"  time="-9999999/1" value="255" leadInLength="0/1"   name="leftClickColorRed"/>
            <InterpolatingParam id="785" interp="linr"  time="-9999999/1" value="0.80000000000000004" leadInLength="0/1"   name="leftClickDuration"/>
            <InterpolatingParam id="786" interp="linr"  time="-9999999/1" value="20" leadInLength="0/1"   name="leftClickSize"/>
            <Parameter id="787"   name="leftClickSoundFilename">
             <Keyframes>
             <Keyframe id="788"  time="-9999999/1" value="" leadInLength="0/1"  />
             </Keyframes>
            </Parameter>
            <InterpolatingParam id="789" interp="linr"  time="-9999999/1" value="1" leadInLength="0/1"   name="leftClickSoundVolume"/>
            <Parameter id="790"   name="leftClickType">
             <Keyframes>
             <Keyframe id="791"  time="-9999999/1" value="0" leadInLength="0/1"  />
             </Keyframes>
            </Parameter>
            <InterpolatingParam id="792" interp="linr"  time="-9999999/1" value="1" leadInLength="0/1"   name="opacity"/>
            <InterpolatingParam id="793" interp="linr"  time="-9999999/1" value="255" leadInLength="0/1"   name="rightClickColorBlue"/>
            <InterpolatingParam id="794" interp="linr"  time="-9999999/1" value="0" leadInLength="0/1"   name="rightClickColorGreen"/>
            <InterpolatingParam id="795" interp="linr"  time="-9999999/1" value="0" leadInLength="0/1"   name="rightClickColorRed"/>
            <InterpolatingParam id="796" interp="linr"  time="-9999999/1" value="0.80000000000000004" leadInLength="0/1"   name="rightClickDuration"/>
            <InterpolatingParam id="797" interp="linr"  time="-9999999/1" value="20" leadInLength="0/1"   name="rightClickSize"/>
            <Parameter id="798"   name="rightClickSoundFilename">
             <Keyframes>
             <Keyframe id="799"  time="-9999999/1" value="" leadInLength="0/1"  />
             </Keyframes>
            </Parameter>
            <InterpolatingParam id="800" interp="linr"  time="-9999999/1" value="1" leadInLength="0/1"   name="rightClickSoundVolume"/>
            <Parameter id="801"   name="rightClickType">
             <Keyframes>
             <Keyframe id="802"  time="-9999999/1" value="0" leadInLength="0/1"  />
             </Keyframes>
            </Parameter>
            </Parameters>
            <MetaData>
             <entry key="effectIndex" val="0"/>
            </MetaData>
           </GenericEffect>
          </Effects>
          <Attributes>
           <Attribute id="803" value="" name="ident"/>
          </Attributes>
          <ExtraData>
           <Entry key="ZoomPanBin">
            <ZoomPanBin id="804"  >
             <ZoomPanKeyframes>
              <ZoomPanKeyframe id="805" timeRangeEnd="-9999999/1" timeRangeDuration="0/1" interpolaterName="linr"  />
             </ZoomPanKeyframes>
            </ZoomPanBin>
           </Entry>
           <Entry key="CursorEffectBin">
            <CursorEffectBin id="806"  >
             <CursorEffectKeyframes>
              <CursorEffectKeyframe id="807" timeRangeEnd="-9999999/1" timeRangeDuration="0/1" interpolaterName=""  />
             </CursorEffectKeyframes>
            </CursorEffectBin>
           </Entry>
          </ExtraData>
         </ScreenVMFile>
         <MetaData>
          <entry key="AutoAppliedSmartFocus" val="False"/>
          <entry key="WinSubProjectDisplayName" val=""/>
         </MetaData>
        </UnifiedMedia>
        <StitchedMedia id="808" start="6074" duration="603" scalar="1/1" mediaStart="1924/1" mediaDuration="603/1" minMediaStart="0/1" >
         <Transformer>
          <VectorParam id="809"  name="translation">
           <InterpolatingParam id="810" interp="linr"  time="-9999999/1" value="168.0000000000102" leadInLength="0/1"  />
           <InterpolatingParam id="811" interp="linr"  time="-9999999/1" value="47.999999999991417" leadInLength="0/1"  />
           <InterpolatingParam id="812" interp="linr"  time="-9999999/1" value="0" leadInLength="0/1"  />
          </VectorParam>
          <VectorParam id="813"  name="rotation">
           <InterpolatingParam id="814" interp="linr"  time="-9999999/1" value="0" leadInLength="0/1"  />
           <InterpolatingParam id="815" interp="linr"  time="-9999999/1" value="0" leadInLength="0/1"  />
           <InterpolatingParam id="816" interp="linr"  time="-9999999/1" value="0" leadInLength="0/1"  />
          </VectorParam>
          <VectorParam id="817"  name="shear">
           <InterpolatingParam id="818" interp="linr"  time="-9999999/1" value="0" leadInLength="0/1"  />
           <InterpolatingParam id="819" interp="linr"  time="-9999999/1" value="0" leadInLength="0/1"  />
           <InterpolatingParam id="820" interp="linr"  time="-9999999/1" value="0" leadInLength="0/1"  />
          </VectorParam>
          <VectorParam id="821"  name="scale">
           <InterpolatingParam id="822" interp="linr"  time="-9999999/1" value="0.66666666666666663" leadInLength="0/1"  />
           <InterpolatingParam id="823" interp="linr"  time="-9999999/1" value="0.66666666666666663" leadInLength="0/1"  />
           <InterpolatingParam id="824" interp="linr"  time="-9999999/1" value="1" leadInLength="0/1"  />
          </VectorParam>
          <VectorParam id="825"  name="anchor">
           <InterpolatingParam id="826" interp="linr"  >
            <Keyframes>
            <Keyframe id="827"  time="0/1" value="0" leadInLength="0/1"  />
            <Keyframe id="828"  time="2335/1" value="0" leadInLength="0/1"  />
            </Keyframes>
           </InterpolatingParam>
           <InterpolatingParam id="829" interp="linr"  >
            <Keyframes>
            <Keyframe id="830"  time="0/1" value="0" leadInLength="0/1"  />
            <Keyframe id="831"  time="2335/1" value="0" leadInLength="0/1"  />
            </Keyframes>
           </InterpolatingParam>
           <InterpolatingParam id="832" interp="linr"  >
            <Keyframes>
            <Keyframe id="833"  time="0/1" value="0" leadInLength="0/1"  />
            <Keyframe id="834"  time="2335/1" value="0" leadInLength="0/1"  />
            </Keyframes>
           </InterpolatingParam>
          </VectorParam>
         </Transformer>
         <Parameters>
          <VectorParam id="835"  name="sourceCrop">
           <InterpolatingParam id="836" interp="linr"  >
            <Keyframes>
            <Keyframe id="837"  time="0/1" value="0" leadInLength="0/1"  />
            <Keyframe id="838"  time="2335/1" value="0" leadInLength="0/1"  />
            </Keyframes>
           </InterpolatingParam>
           <InterpolatingParam id="839" interp="linr"  >
            <Keyframes>
            <Keyframe id="840"  time="0/1" value="0" leadInLength="0/1"  />
            <Keyframe id="841"  time="2335/1" value="0" leadInLength="0/1"  />
            </Keyframes>
           </InterpolatingParam>
           <InterpolatingParam id="842" interp="linr"  >
            <Keyframes>
            <Keyframe id="843"  time="0/1" value="0" leadInLength="0/1"  />
            <Keyframe id="844"  time="2335/1" value="0" leadInLength="0/1"  />
            </Keyframes>
           </InterpolatingParam>
           <InterpolatingParam id="845" interp="linr"  >
            <Keyframes>
            <Keyframe id="846"  time="0/1" value="0" leadInLength="0/1"  />
            <Keyframe id="847"  time="2335/1" value="0" leadInLength="0/1"  />
            </Keyframes>
           </InterpolatingParam>
          </VectorParam>
          <VectorParam id="848"  name="geometryCrop">
           <InterpolatingParam id="849" interp="linr"  time="-9999999/1" value="0" leadInLength="0/1"  />
           <InterpolatingParam id="850" interp="linr"  time="-9999999/1" value="0" leadInLength="0/1"  />
           <InterpolatingParam id="851" interp="linr"  time="-9999999/1" value="0" leadInLength="0/1"  />
           <InterpolatingParam id="852" interp="linr"  time="-9999999/1" value="0" leadInLength="0/1"  />
          </VectorParam>
          <InterpolatingParam id="853" interp="linr"  time="-9999999/1" value="1" leadInLength="0/1"  name="opacity"/>
          <InterpolatingParam id="854" interp="linr"  time="0/1" value="1" leadInLength="0/1"  name="cursorOpacity"/>
          <InterpolatingParam id="855" interp="linr"  name="cursorScale">
           <Keyframes>
           <Keyframe id="856"  time="0/1" value="1" leadInLength="0/1"  />
           <Keyframe id="857"  time="2335/1" value="1" leadInLength="0/1"  />
           </Keyframes>
          </InterpolatingParam>
          <InterpolatingParam id="858" interp="linr"  time="0/1" value="1" leadInLength="0/1"  name="volume"/>
          <Parameter id="859"  name="captions"/>
         </Parameters>
         <Effects>
          <GenericEffect id="860" name = "CursorBaseEffectName" >
           <Parameters>
           <InterpolatingParam id="861" interp="linr"  time="-9999999/1" value="1" leadInLength="0/1"   name="cursorSize"/>
           <InterpolatingParam id="862" interp="linr"  time="-9999999/1" value="0" leadInLength="0/1"   name="highlightBlurRadius"/>
           <InterpolatingParam id="863" interp="linr"  time="-9999999/1" value="0" leadInLength="0/1"   name="highlightColorBlue"/>
           <InterpolatingParam id="864" interp="linr"  time="-9999999/1" value="255" leadInLength="0/1"   name="highlightColorGreen"/>
           <InterpolatingParam id="865" interp="linr"  time="-9999999/1" value="255" leadInLength="0/1"   name="highlightColorRed"/>
           <InterpolatingParam id="866" interp="linr"  time="-9999999/1" value="5" leadInLength="0/1"   name="highlightFeatherSize"/>
           <InterpolatingParam id="867" interp="linr"  time="-9999999/1" value="2" leadInLength="0/1"   name="highlightMagnification"/>
           <InterpolatingParam id="868" interp="linr"  time="-9999999/1" value="1" leadInLength="0/1"   name="highlightOpacity"/>
           <InterpolatingParam id="869" interp="linr"  time="-9999999/1" value="45" leadInLength="0/1"   name="highlightSize"/>
           <Parameter id="870"   name="highlightType">
            <Keyframes>
            <Keyframe id="871"  time="-9999999/1" value="0" leadInLength="0/1"  />
            </Keyframes>
           </Parameter>
           <InterpolatingParam id="872" interp="linr"  time="-9999999/1" value="0" leadInLength="0/1"   name="leftClickColorBlue"/>
           <InterpolatingParam id="873" interp="linr"  time="-9999999/1" value="0" leadInLength="0/1"   name="leftClickColorGreen"/>
           <InterpolatingParam id="874" interp="linr"  time="-9999999/1" value="255" leadInLength="0/1"   name="leftClickColorRed"/>
           <InterpolatingParam id="875" interp="linr"  time="-9999999/1" value="0.80000000000000004" leadInLength="0/1"   name="leftClickDuration"/>
           <InterpolatingParam id="876" interp="linr"  time="-9999999/1" value="20" leadInLength="0/1"   name="leftClickSize"/>
           <Parameter id="877"   name="leftClickSoundFilename">
            <Keyframes>
            <Keyframe id="878"  time="-9999999/1" value="" leadInLength="0/1"  />
            </Keyframes>
           </Parameter>
           <InterpolatingParam id="879" interp="linr"  time="-9999999/1" value="1" leadInLength="0/1"   name="leftClickSoundVolume"/>
           <Parameter id="880"   name="leftClickType">
            <Keyframes>
            <Keyframe id="881"  time="-9999999/1" value="0" leadInLength="0/1"  />
            </Keyframes>
           </Parameter>
           <InterpolatingParam id="882" interp="linr"  time="-9999999/1" value="1" leadInLength="0/1"   name="opacity"/>
           <InterpolatingParam id="883" interp="linr"  time="-9999999/1" value="255" leadInLength="0/1"   name="rightClickColorBlue"/>
           <InterpolatingParam id="884" interp="linr"  time="-9999999/1" value="0" leadInLength="0/1"   name="rightClickColorGreen"/>
           <InterpolatingParam id="885" interp="linr"  time="-9999999/1" value="0" leadInLength="0/1"   name="rightClickColorRed"/>
           <InterpolatingParam id="886" interp="linr"  time="-9999999/1" value="0.80000000000000004" leadInLength="0/1"   name="rightClickDuration"/>
           <InterpolatingParam id="887" interp="linr"  time="-9999999/1" value="20" leadInLength="0/1"   name="rightClickSize"/>
           <Parameter id="888"   name="rightClickSoundFilename">
            <Keyframes>
            <Keyframe id="889"  time="-9999999/1" value="" leadInLength="0/1"  />
            </Keyframes>
           </Parameter>
           <InterpolatingParam id="890" interp="linr"  time="-9999999/1" value="1" leadInLength="0/1"   name="rightClickSoundVolume"/>
           <Parameter id="891"   name="rightClickType">
            <Keyframes>
            <Keyframe id="892"  time="-9999999/1" value="0" leadInLength="0/1"  />
            </Keyframes>
           </Parameter>
           </Parameters>
           <MetaData>
            <entry key="effectIndex" val="0"/>
           </MetaData>
          </GenericEffect>
         </Effects>
         <Attributes>
          <Attribute id="893" value="" name="ident"/>
          <Attribute id="894" value="0" name="mixToMono"/>
         </Attributes>
         <MetaData>
          <entry key="AutoAppliedSmartFocus" val="False"/>
          <entry key="WinSubProjectDisplayName" val=""/>
         </MetaData>
         <ExtraData>
          <Entry key="ZoomPanBin">
           <ZoomPanBin id="895"  >
            <ZoomPanKeyframes>
             <ZoomPanKeyframe id="896" timeRangeEnd="-9999999/1" timeRangeDuration="0/1" interpolaterName=""  />
            </ZoomPanKeyframes>
           </ZoomPanBin>
          </Entry>
          <Entry key="CursorEffectBin">
           <CursorEffectBin id="897"  >
            <CursorEffectKeyframes>
             <CursorEffectKeyframe id="898" timeRangeEnd="-9999999/1" timeRangeDuration="0/1" interpolaterName=""  />
            </CursorEffectKeyframes>
           </CursorEffectBin>
          </Entry>
         </ExtraData>
         <GenericTrack id="899"  >
          <Attributes>
           <Attribute id="900" value="" name="ident"/>
           <Attribute id="901" value="0" name="audioMuted"/>
           <Attribute id="902" value="0" name="videoHidden"/>
          </Attributes>
          <MetaData>
           <entry key="IsLocked" val="False"/>
           <entry key="WinTrackHeight" val="0"/>
          </MetaData>
          <Medias>
           <UnifiedMedia id="903"  >
            <AMFile id="904" start="0" duration="2335" scalar="1/1" mediaStart="0/1" mediaDuration="2335/1" trackNumber="1" src="14" channelNumber="0,1" >
             <Parameters>
              <InterpolatingParam id="905" interp="linr"  time="0/1" value="1" leadInLength="0/1"  name="volume"/>
              <Parameter id="906"  name="captions"/>
             </Parameters>
             <Attributes>
              <Attribute id="907" value="" name="ident"/>
              <Attribute id="908" value="44100" name="sampleRate"/>
              <Attribute id="909" value="16" name="bitDepth"/>
              <Attribute id="910" value="1" name="gain"/>
              <Attribute id="911" value="0" name="mixToMono"/>
             </Attributes>
            </AMFile>
            <ScreenVMFile id="912" start="0" duration="2335" scalar="1/1" mediaStart="0/1" mediaDuration="2335/1" trackNumber="0" src="14" >
             <Transformer>
              <VectorParam id="913"  name="translation">
               <InterpolatingParam id="914" interp="linr"  time="-9999999/1" value="0" leadInLength="0/1"  />
               <InterpolatingParam id="915" interp="linr"  time="-9999999/1" value="0" leadInLength="0/1"  />
               <InterpolatingParam id="916" interp="linr"  time="-9999999/1" value="0" leadInLength="0/1"  />
              </VectorParam>
              <VectorParam id="917"  name="rotation">
               <InterpolatingParam id="918" interp="linr"  time="-9999999/1" value="0" leadInLength="0/1"  />
               <InterpolatingParam id="919" interp="linr"  time="-9999999/1" value="0" leadInLength="0/1"  />
               <InterpolatingParam id="920" interp="linr"  time="-9999999/1" value="0" leadInLength="0/1"  />
              </VectorParam>
              <VectorParam id="921"  name="shear">
               <InterpolatingParam id="922" interp="linr"  time="-9999999/1" value="0" leadInLength="0/1"  />
               <InterpolatingParam id="923" interp="linr"  time="-9999999/1" value="0" leadInLength="0/1"  />
               <InterpolatingParam id="924" interp="linr"  time="-9999999/1" value="0" leadInLength="0/1"  />
              </VectorParam>
              <VectorParam id="925"  name="scale">
               <InterpolatingParam id="926" interp="linr"  time="-9999999/1" value="1" leadInLength="0/1"  />
               <InterpolatingParam id="927" interp="linr"  time="-9999999/1" value="1" leadInLength="0/1"  />
               <InterpolatingParam id="928" interp="linr"  time="-9999999/1" value="1" leadInLength="0/1"  />
              </VectorParam>
              <VectorParam id="929"  name="anchor">
               <InterpolatingParam id="930" interp="linr"  time="0/1" value="0" leadInLength="0/1"  />
               <InterpolatingParam id="931" interp="linr"  time="0/1" value="0" leadInLength="0/1"  />
               <InterpolatingParam id="932" interp="linr"  time="0/1" value="0" leadInLength="0/1"  />
              </VectorParam>
             </Transformer>
             <Parameters>
              <VectorParam id="933"  name="sourceCrop">
               <InterpolatingParam id="934" interp="linr"  time="0/1" value="0" leadInLength="0/1"  />
               <InterpolatingParam id="935" interp="linr"  time="0/1" value="0" leadInLength="0/1"  />
               <InterpolatingParam id="936" interp="linr"  time="0/1" value="0" leadInLength="0/1"  />
               <InterpolatingParam id="937" interp="linr"  time="0/1" value="0" leadInLength="0/1"  />
              </VectorParam>
              <VectorParam id="938"  name="geometryCrop">
               <InterpolatingParam id="939" interp="linr"  time="-9999999/1" value="0" leadInLength="0/1"  />
               <InterpolatingParam id="940" interp="linr"  time="-9999999/1" value="0" leadInLength="0/1"  />
               <InterpolatingParam id="941" interp="linr"  time="-9999999/1" value="0" leadInLength="0/1"  />
               <InterpolatingParam id="942" interp="linr"  time="-9999999/1" value="0" leadInLength="0/1"  />
              </VectorParam>
              <InterpolatingParam id="943" interp="linr"  time="-9999999/1" value="1" leadInLength="0/1"  name="opacity"/>
              <InterpolatingParam id="944" interp="linr"  time="0/1" value="0" leadInLength="0/1"  name="cursorOpacity"/>
              <InterpolatingParam id="945" interp="linr"  time="0/1" value="0" leadInLength="0/1"  name="cursorScale"/>
             </Parameters>
             <Attributes>
              <Attribute id="946" value="" name="ident"/>
             </Attributes>
             <ExtraData>
              <Entry key="ZoomPanBin">
               <ZoomPanBin id="947"  >
                <ZoomPanKeyframes>
                 <ZoomPanKeyframe id="948" timeRangeEnd="-9999999/1" timeRangeDuration="0/1" interpolaterName=""  />
                </ZoomPanKeyframes>
               </ZoomPanBin>
              </Entry>
              <Entry key="CursorEffectBin">
               <CursorEffectBin id="949"  >
                <CursorEffectKeyframes>
                </CursorEffectKeyframes>
               </CursorEffectBin>
              </Entry>
             </ExtraData>
            </ScreenVMFile>
            <MetaData>
             <entry key="AutoAppliedSmartFocus" val="False"/>
             <entry key="WinSubProjectDisplayName" val=""/>
            </MetaData>
           </UnifiedMedia>
           <ScreenIMFile id="950" start="2335" duration="390" scalar="1/1" mediaStart="2335/1" mediaDuration="1/1" trackNumber="0" src="14" trimStartSum="0/1" >
            <Transformer>
             <VectorParam id="951"  name="translation">
              <InterpolatingParam id="952" interp="linr"  time="-9999999/1" value="0" leadInLength="0/1"  />
              <InterpolatingParam id="953" interp="linr"  time="-9999999/1" value="0" leadInLength="0/1"  />
              <InterpolatingParam id="954" interp="linr"  time="-9999999/1" value="0" leadInLength="0/1"  />
             </VectorParam>
             <VectorParam id="955"  name="rotation">
              <InterpolatingParam id="956" interp="linr"  time="-9999999/1" value="0" leadInLength="0/1"  />
              <InterpolatingParam id="957" interp="linr"  time="-9999999/1" value="0" leadInLength="0/1"  />
              <InterpolatingParam id="958" interp="linr"  time="-9999999/1" value="0" leadInLength="0/1"  />
             </VectorParam>
             <VectorParam id="959"  name="shear">
              <InterpolatingParam id="960" interp="linr"  time="-9999999/1" value="0" leadInLength="0/1"  />
              <InterpolatingParam id="961" interp="linr"  time="-9999999/1" value="0" leadInLength="0/1"  />
              <InterpolatingParam id="962" interp="linr"  time="-9999999/1" value="0" leadInLength="0/1"  />
             </VectorParam>
             <VectorParam id="963"  name="scale">
              <InterpolatingParam id="964" interp="linr"  time="-9999999/1" value="1" leadInLength="0/1"  />
              <InterpolatingParam id="965" interp="linr"  time="-9999999/1" value="1" leadInLength="0/1"  />
              <InterpolatingParam id="966" interp="linr"  time="-9999999/1" value="1" leadInLength="0/1"  />
             </VectorParam>
             <VectorParam id="967"  name="anchor">
              <InterpolatingParam id="968" interp="linr"  time="0/1" value="0" leadInLength="0/1"  />
              <InterpolatingParam id="969" interp="linr"  time="0/1" value="0" leadInLength="0/1"  />
              <InterpolatingParam id="970" interp="linr"  time="0/1" value="0" leadInLength="0/1"  />
             </VectorParam>
            </Transformer>
            <Parameters>
             <VectorParam id="971"  name="sourceCrop">
              <InterpolatingParam id="972" interp="linr"  time="0/1" value="0" leadInLength="0/1"  />
              <InterpolatingParam id="973" interp="linr"  time="0/1" value="0" leadInLength="0/1"  />
              <InterpolatingParam id="974" interp="linr"  time="0/1" value="0" leadInLength="0/1"  />
              <InterpolatingParam id="975" interp="linr"  time="0/1" value="0" leadInLength="0/1"  />
             </VectorParam>
             <VectorParam id="976"  name="geometryCrop">
              <InterpolatingParam id="977" interp="linr"  time="-9999999/1" value="0" leadInLength="0/1"  />
              <InterpolatingParam id="978" interp="linr"  time="-9999999/1" value="0" leadInLength="0/1"  />
              <InterpolatingParam id="979" interp="linr"  time="-9999999/1" value="0" leadInLength="0/1"  />
              <InterpolatingParam id="980" interp="linr"  time="-9999999/1" value="0" leadInLength="0/1"  />
             </VectorParam>
             <InterpolatingParam id="981" interp="linr"  time="-9999999/1" value="1" leadInLength="0/1"  name="opacity"/>
             <InterpolatingParam id="982" interp="linr"  time="0/1" value="(935,615,0)" leadInLength="0/1"  name="cursorLocation"/>
             <InterpolatingParam id="983" interp="linr"  time="0/1" value="(-8,-8,1936,1096)" leadInLength="0/1"  name="topmostWindowCoordinates"/>
             <Parameter id="984"  name="cursorImagePath">
              <Keyframes>
              <Keyframe id="985"  time="0/1" value="2b7b6af1-7a1f-11e2-83d0-0017f200be7f/0" leadInLength="0/1"  />
              </Keyframes>
             </Parameter>
             <InterpolatingParam id="986" interp="linr"  time="0/1" value="(0,0,1920,1080)" leadInLength="0/1"  name="recordingRegion"/>
             <InterpolatingParam id="987" interp="linr"  time="0/1" value="0" leadInLength="0/1"  name="cursorOpacity"/>
             <InterpolatingParam id="988" interp="linr"  time="0/1" value="1" leadInLength="0/1"  name="recordedCursorOpacity"/>
             <InterpolatingParam id="989" interp="linr"  time="0/1" value="0" leadInLength="0/1"  name="cursorScale"/>
            </Parameters>
            <Attributes>
             <Attribute id="990" value="" name="ident"/>
            </Attributes>
            <MetaData>
             <entry key="AutoAppliedSmartFocus" val="False"/>
             <entry key="WinSubProjectDisplayName" val=""/>
            </MetaData>
            <ExtraData>
             <Entry key="ZoomPanBin">
              <ZoomPanBin id="991"  >
               <ZoomPanKeyframes>
                <ZoomPanKeyframe id="992" timeRangeEnd="-9999999/1" timeRangeDuration="0/1" interpolaterName=""  />
               </ZoomPanKeyframes>
              </ZoomPanBin>
             </Entry>
             <Entry key="CursorEffectBin">
              <CursorEffectBin id="993"  >
               <CursorEffectKeyframes>
               </CursorEffectKeyframes>
              </CursorEffectBin>
             </Entry>
            </ExtraData>
           </ScreenIMFile>
           <UnifiedMedia id="994"  >
            <AMFile id="995" start="2725" duration="6" scalar="1/1" mediaStart="2335/1" mediaDuration="6/1" trackNumber="1" src="14" channelNumber="0,1" >
             <Parameters>
              <InterpolatingParam id="996" interp="linr"  time="0/1" value="1" leadInLength="0/1"  name="volume"/>
              <Parameter id="997"  name="captions"/>
             </Parameters>
             <Attributes>
              <Attribute id="998" value="" name="ident"/>
              <Attribute id="999" value="44100" name="sampleRate"/>
              <Attribute id="1000" value="16" name="bitDepth"/>
              <Attribute id="1001" value="1" name="gain"/>
              <Attribute id="1002" value="0" name="mixToMono"/>
             </Attributes>
            </AMFile>
            <ScreenVMFile id="1003" start="2725" duration="6" scalar="1/1" mediaStart="2335/1" mediaDuration="6/1" trackNumber="0" src="14" >
             <Transformer>
              <VectorParam id="1004"  name="translation">
               <InterpolatingParam id="1005" interp="linr"  time="-9999999/1" value="0" leadInLength="0/1"  />
               <InterpolatingParam id="1006" interp="linr"  time="-9999999/1" value="0" leadInLength="0/1"  />
               <InterpolatingParam id="1007" interp="linr"  time="-9999999/1" value="0" leadInLength="0/1"  />
              </VectorParam>
              <VectorParam id="1008"  name="rotation">
               <InterpolatingParam id="1009" interp="linr"  time="-9999999/1" value="0" leadInLength="0/1"  />
               <InterpolatingParam id="1010" interp="linr"  time="-9999999/1" value="0" leadInLength="0/1"  />
               <InterpolatingParam id="1011" interp="linr"  time="-9999999/1" value="0" leadInLength="0/1"  />
              </VectorParam>
              <VectorParam id="1012"  name="shear">
               <InterpolatingParam id="1013" interp="linr"  time="-9999999/1" value="0" leadInLength="0/1"  />
               <InterpolatingParam id="1014" interp="linr"  time="-9999999/1" value="0" leadInLength="0/1"  />
               <InterpolatingParam id="1015" interp="linr"  time="-9999999/1" value="0" leadInLength="0/1"  />
              </VectorParam>
              <VectorParam id="1016"  name="scale">
               <InterpolatingParam id="1017" interp="linr"  time="-9999999/1" value="1" leadInLength="0/1"  />
               <InterpolatingParam id="1018" interp="linr"  time="-9999999/1" value="1" leadInLength="0/1"  />
               <InterpolatingParam id="1019" interp="linr"  time="-9999999/1" value="1" leadInLength="0/1"  />
              </VectorParam>
              <VectorParam id="1020"  name="anchor">
               <InterpolatingParam id="1021" interp="linr"  time="0/1" value="0" leadInLength="0/1"  />
               <InterpolatingParam id="1022" interp="linr"  time="0/1" value="0" leadInLength="0/1"  />
               <InterpolatingParam id="1023" interp="linr"  time="0/1" value="0" leadInLength="0/1"  />
              </VectorParam>
             </Transformer>
             <Parameters>
              <VectorParam id="1024"  name="sourceCrop">
               <InterpolatingParam id="1025" interp="linr"  time="0/1" value="0" leadInLength="0/1"  />
               <InterpolatingParam id="1026" interp="linr"  time="0/1" value="0" leadInLength="0/1"  />
               <InterpolatingParam id="1027" interp="linr"  time="0/1" value="0" leadInLength="0/1"  />
               <InterpolatingParam id="1028" interp="linr"  time="0/1" value="0" leadInLength="0/1"  />
              </VectorParam>
              <VectorParam id="1029"  name="geometryCrop">
               <InterpolatingParam id="1030" interp="linr"  time="-9999999/1" value="0" leadInLength="0/1"  />
               <InterpolatingParam id="1031" interp="linr"  time="-9999999/1" value="0" leadInLength="0/1"  />
               <InterpolatingParam id="1032" interp="linr"  time="-9999999/1" value="0" leadInLength="0/1"  />
               <InterpolatingParam id="1033" interp="linr"  time="-9999999/1" value="0" leadInLength="0/1"  />
              </VectorParam>
              <InterpolatingParam id="1034" interp="linr"  time="-9999999/1" value="1" leadInLength="0/1"  name="opacity"/>
              <InterpolatingParam id="1035" interp="linr"  time="0/1" value="0" leadInLength="0/1"  name="cursorOpacity"/>
              <InterpolatingParam id="1036" interp="linr"  time="0/1" value="0" leadInLength="0/1"  name="cursorScale"/>
             </Parameters>
             <Attributes>
              <Attribute id="1037" value="" name="ident"/>
             </Attributes>
             <ExtraData>
              <Entry key="ZoomPanBin">
               <ZoomPanBin id="1038"  >
                <ZoomPanKeyframes>
                 <ZoomPanKeyframe id="1039" timeRangeEnd="-9999999/1" timeRangeDuration="0/1" interpolaterName=""  />
                </ZoomPanKeyframes>
               </ZoomPanBin>
              </Entry>
              <Entry key="CursorEffectBin">
               <CursorEffectBin id="1040"  >
                <CursorEffectKeyframes>
                </CursorEffectKeyframes>
               </CursorEffectBin>
              </Entry>
             </ExtraData>
            </ScreenVMFile>
            <MetaData>
             <entry key="AutoAppliedSmartFocus" val="False"/>
             <entry key="WinSubProjectDisplayName" val=""/>
            </MetaData>
           </UnifiedMedia>
          </Medias>
         </GenericTrack>
        </StitchedMedia>
       </Medias>
      </GenericTrack>
      <GenericTrack id="1041"  >
       <Attributes>
        <Attribute id="1042" value="" name="ident"/>
        <Attribute id="1043" value="0" name="audioMuted"/>
        <Attribute id="1044" value="0" name="videoHidden"/>
       </Attributes>
       <MetaData>
        <entry key="IsLocked" val="False"/>
        <entry key="WinTrackHeight" val="62"/>
       </MetaData>
       <Medias>
        <AMFile id="1045" start="6486" duration="191" scalar="1/1" mediaStart="0/1" mediaDuration="191/1" trackNumber="0" src="16" channelNumber="0,1" >
         <Parameters>
          <InterpolatingParam id="1046" interp="linr"  time="0/1" value="1" leadInLength="0/1"  name="volume"/>
          <Parameter id="1047"  name="captions"/>
         </Parameters>
         <Attributes>
          <Attribute id="1048" value="" name="ident"/>
          <Attribute id="1049" value="44100" name="sampleRate"/>
          <Attribute id="1050" value="16" name="bitDepth"/>
          <Attribute id="1051" value="1" name="gain"/>
          <Attribute id="1052" value="0" name="mixToMono"/>
         </Attributes>
         <MetaData>
          <entry key="WinSubProjectDisplayName" val=""/>
         </MetaData>
        </AMFile>
       </Medias>
      </GenericTrack>
      <GenericTrack id="1053"  >
       <Attributes>
        <Attribute id="1054" value="" name="ident"/>
        <Attribute id="1055" value="0" name="audioMuted"/>
        <Attribute id="1056" value="0" name="videoHidden"/>
       </Attributes>
       <MetaData>
        <entry key="IsLocked" val="False"/>
        <entry key="WinTrackHeight" val="62"/>
       </MetaData>
       <Medias>
       </Medias>
      </GenericTrack>
     </Tracks>
    </GenericMixer>
   <CaptionAttributes id="1057"  >
    <Attribute id="1058" value="1" name="captionsEnabled"/>
    <Attribute id="1059" value="Arial" name="captionsFontName"/>
    <Attribute id="1060" value="28" name="captionsFontSize"/>
    <Attribute id="1061" value="(0,0,0,255)" name="captionsBackgroundColor"/>
    <Attribute id="1062" value="(255,255,255,255)" name="captionsForegroundColor"/>
    <Attribute id="1063" value="en" name="lang"/>
    <Attribute id="1064" value="0" name="captionsAlignment"/>
    <Attribute id="1065" value="1" name="captionsDefaultFontSize"/>
    <Attribute id="1066" value="0.5" name="captionsOpacity"/>
    <Attribute id="1067" value="1" name="captionsBackgroundEnabled"/>
    <Attribute id="1068" value="1" name="captionsBackgroundOnlyAroundText"/>
   </CaptionAttributes>
   <Parameters>
    <VectorParam id="1069"  name="eyePosition">
     <InterpolatingParam id="1070" interp="linr"  time="0/1" value="0" leadInLength="0/1"  />
     <InterpolatingParam id="1071" interp="linr"  time="0/1" value="0" leadInLength="0/1"  />
     <InterpolatingParam id="1072" interp="linr"  time="0/1" value="3000" leadInLength="0/1"  />
    </VectorParam>
    <VectorParam id="1073"  name="eyeLookAtPosition">
     <InterpolatingParam id="1074" interp="linr"  time="0/1" value="0" leadInLength="0/1"  />
     <InterpolatingParam id="1075" interp="linr"  time="0/1" value="0" leadInLength="0/1"  />
     <InterpolatingParam id="1076" interp="linr"  time="0/1" value="0" leadInLength="0/1"  />
    </VectorParam>
    <VectorParam id="1077"  name="eyeUpVector">
     <InterpolatingParam id="1078" interp="linr"  time="0/1" value="0" leadInLength="0/1"  />
     <InterpolatingParam id="1079" interp="linr"  time="0/1" value="1" leadInLength="0/1"  />
     <InterpolatingParam id="1080" interp="linr"  time="0/1" value="0" leadInLength="0/1"  />
    </VectorParam>
    <InterpolatingParam id="1081" interp="linr"  time="0/1" value="0.23885785" leadInLength="0/1"  name="fov"/>
    <InterpolatingParam id="1082" interp="linr"  time="0/1" value="1.5" leadInLength="0/1"  name="nearClipDistance"/>
    <InterpolatingParam id="1083" interp="linr"  time="0/1" value="6000" leadInLength="0/1"  name="farClipDistance"/>
   </Parameters>
  </Timeline>
 </Project>
</GoProject>
</CSMLData>

</Project_Data>
